<svg width="141" height="135" viewBox="0 0 141 135" fill="none" xmlns="http://www.w3.org/2000/svg">
<g clip-path="url(#clip0_3_83)">
<path d="M70.965 77.5672C71.045 77.6153 71.1249 77.6583 71.2034 77.6989C72.279 78.2363 73.5839 78.0128 74.4129 77.1442C74.4159 77.1419 74.4189 77.1351 74.4219 77.1329C75.5994 75.8886 76.1093 74.1483 76.2594 72.4472C76.5249 69.4288 75.7397 66.3299 74.0719 63.7993C73.3109 62.6469 72.3333 61.581 71.0608 61.0361C69.7883 60.4911 68.1862 60.5626 67.1551 61.4847C66.2221 62.3195 65.9226 63.645 65.8193 64.887C65.5093 68.7092 66.6588 72.6324 68.9835 75.6801C69.5417 76.4103 70.176 77.1035 70.9658 77.5672H70.965Z" fill="white"/>
<path d="M57.3765 75.011C58.1451 75.647 58.9854 76.2281 59.935 76.5322C60.0323 76.5631 60.1251 76.5879 60.2202 76.6112C61.4896 76.9244 62.8232 76.3719 63.49 75.2496C63.493 75.2473 63.496 75.2405 63.4968 75.236C64.4449 73.6327 64.5649 71.6636 64.3122 69.8202C63.8611 66.5557 62.2794 63.4576 59.8943 61.1768C58.8096 60.1351 57.5115 59.2416 56.0308 58.9706C54.5479 58.6966 52.8666 59.1618 51.9954 60.3917C51.2094 61.5005 51.2124 62.9788 51.4033 64.3232C51.9984 68.4526 54.1708 72.3343 57.3765 75.0117V75.011Z" fill="white"/>
<path d="M55.4289 80.2822C55.4304 80.1813 55.4289 80.0827 55.4259 79.9864C55.3814 78.9898 55.0382 78.0286 54.6158 77.1231C52.8598 73.3384 49.6631 70.2388 45.823 68.5948C44.5717 68.0596 43.1408 67.6773 41.8645 68.1439C40.4518 68.6656 39.5647 70.1665 39.4433 71.6651C39.3218 73.163 39.8521 74.6459 40.5777 75.9631C42.1647 78.8506 44.7519 81.181 47.7963 82.4606C49.5153 83.1832 51.4531 83.5761 53.2468 83.0823C53.2543 83.0808 53.2596 83.077 53.2649 83.077C54.5238 82.724 55.4025 81.5837 55.4297 80.2822H55.4289Z" fill="white"/>
<path d="M76.1327 81.6017C72.3559 79.5679 66.6173 78.4621 62.3805 79.0869C60.1146 79.4219 58.176 80.9077 57.2626 83.004C55.5609 86.9249 55.1423 92.7426 56.1327 96.9067C56.6841 99.2295 57.6631 101.549 59.4689 103.112C61.2792 104.675 64.058 105.285 66.1195 104.075C68.8364 102.482 69.1374 98.7094 71.8189 96.6537C74.5026 94.6003 78.2311 95.2898 80.4796 93.0851C82.1881 91.4141 82.3171 88.5771 81.2716 86.4274C80.2262 84.2829 78.2341 82.7368 76.1327 81.601V81.6017Z" fill="white"/>
<path d="M52.2549 88.4838C49.906 85.4496 46.4114 83.3239 42.6309 82.6345C41.3984 82.4101 40.0399 82.3582 38.9907 83.0387C37.8321 83.7929 37.3464 85.3194 37.5417 86.6863C37.7401 88.051 38.5185 89.2726 39.4365 90.3054C41.4527 92.5695 44.2489 94.1276 47.2366 94.6538C48.9254 94.9534 50.741 94.9112 52.2481 94.1021C52.2534 94.0975 52.2609 94.0968 52.2639 94.0945C53.3184 93.5232 53.8728 92.3211 53.6307 91.1446C53.6134 91.0581 53.5907 90.9715 53.5658 90.8819C53.323 90.0013 52.8176 89.2094 52.2541 88.4838H52.2549Z" fill="white"/>
<path d="M111.594 56.8563C111.151 57.6609 110.773 58.5205 110.668 59.429C110.656 59.5209 110.649 59.6119 110.644 59.7C110.586 60.8991 111.32 61.9995 112.452 62.4038C112.455 62.4053 112.462 62.406 112.465 62.4075C114.082 62.9781 115.883 62.7387 117.502 62.1862C120.375 61.2062 122.897 59.2356 124.541 56.6884C125.288 55.5277 125.869 54.2037 125.853 52.8217C125.837 51.4397 125.123 50.0073 123.86 49.4398C122.718 48.9264 121.382 49.1899 120.202 49.5986C116.574 50.8631 113.445 53.5007 111.594 56.8563Z" fill="white"/>
<path d="M118.724 35.1653C117.391 34.8973 116.037 35.498 114.883 36.2168C111.34 38.4321 108.663 41.9856 107.508 45.9953C107.237 46.9535 107.044 47.9562 107.151 48.946C107.162 49.0468 107.176 49.1417 107.194 49.238C107.421 50.5237 108.467 51.5165 109.765 51.67C109.768 51.6716 109.775 51.6723 109.781 51.67C111.634 51.8861 113.487 51.1981 115.073 50.2211C117.882 48.4876 120.08 45.7891 121.204 42.6902C121.719 41.2781 122.012 39.732 121.661 38.2717C121.312 36.8077 120.204 35.4619 118.724 35.1645V35.1653Z" fill="white"/>
<path d="M103.311 28.2765C101.889 28.7725 100.746 29.8564 99.8324 31.0517C97.8298 33.6689 96.7421 36.9733 96.8017 40.2687C96.8356 42.1302 97.2603 44.0571 98.4392 45.494C98.4438 45.5001 98.4498 45.5038 98.4513 45.5083C99.2848 46.514 100.685 46.8542 101.889 46.3521C101.982 46.313 102.072 46.2716 102.159 46.2294C103.054 45.7853 103.796 45.0831 104.455 44.3311C107.212 41.196 108.757 37.0245 108.708 32.8545C108.692 31.4958 108.462 30.0355 107.518 29.06C106.468 27.9821 104.733 27.7804 103.311 28.2765Z" fill="white"/>
<path d="M100.302 74.3945C102.525 75.2767 105.177 74.2455 106.724 72.4216C108.265 70.5993 108.876 68.1552 109.064 65.7782C109.399 61.5088 108.087 55.8243 105.8 52.212C104.575 50.2805 102.429 49.1131 100.138 49.1289C95.8565 49.1643 90.3563 51.1371 86.9416 53.7272C85.037 55.1709 83.3074 57.0038 82.6067 59.2838C81.9075 61.5682 82.4732 64.351 84.4178 65.7413C86.9778 67.5749 90.5554 66.3224 93.5258 67.937C96.4939 69.5545 97.3719 73.2353 100.302 74.3945Z" fill="white"/>
<path d="M87.9395 49.0468C87.9456 49.0499 87.9501 49.0566 87.9531 49.0581C88.9035 49.789 90.2296 49.8078 91.2094 49.1108C91.281 49.0596 91.3519 49.0039 91.4236 48.9452C92.1326 48.3664 92.6531 47.5851 93.0898 46.7774C94.919 43.4053 95.4515 39.3564 94.5524 35.6275C94.259 34.4118 93.7566 33.1518 92.7082 32.4691C91.5481 31.7171 89.9527 31.8925 88.7791 32.6241C87.6084 33.358 86.8051 34.5624 86.2303 35.8186C84.9722 38.5751 84.6765 41.7576 85.4044 44.6969C85.814 46.3597 86.5879 47.9983 87.9395 49.0461V49.0468Z" fill="white"/>
<path d="M140.947 37.5275C140.603 29.14 138.106 20.4785 132.917 13.7184C126.239 4.95978 115.504 -0.691601 104.348 0.0686407C95.3762 0.499193 87.1364 4.19427 80.7717 10.4907C77.7643 13.4692 75.2035 16.8632 73.1511 20.5455C72.9489 20.3114 72.7453 20.078 72.5409 19.8454C66.1928 12.7353 58.3949 6.46822 49.1572 3.59435C34.748 -0.919673 16.9694 1.94892 7.88623 14.9317C7.31297 15.7514 6.74876 16.6216 6.26451 17.4947C1.6724 25.545 -0.403407 34.9193 0.0650063 44.1483C2.00353 83.0998 44.2173 123.494 79.8379 135C55.2118 124.096 31.8093 102.307 18.18 79.221C8.11629 62.1909 1.86323 40.1183 12.2883 21.8898C13.7569 19.2019 15.7421 16.7909 18.1672 14.9099C26.5926 8.37409 38.5435 8.11666 48.3101 11.6205C57.0742 14.9122 64.7717 22.1781 70.3127 29.5893C70.3874 29.6774 74.9825 36.2539 75.1831 36.5369L77.7447 29.231L77.8224 29.0105L77.9287 28.7245C78.4794 27.286 79.1477 25.8882 79.8839 24.5266C84.2814 16.3498 91.5784 9.74704 100.875 7.9473C102.597 7.60858 104.359 7.41061 106.116 7.36395C115.311 6.99737 124.164 12.4252 129.218 19.9651C134.845 28.4429 135.975 39.1556 134.818 49.1019C131.617 73.745 113.193 101.82 95.9517 119.352C100.894 115.266 105.512 110.75 109.822 105.995C123.323 90.8813 135.877 71.5035 139.931 51.3819C140.785 46.822 141.147 42.1664 140.948 37.5275H140.947Z" fill="white"/>
</g>
<defs>
<clipPath id="clip0_3_83">
<rect width="141" height="135" fill="white"/>
</clipPath>
</defs>
</svg>
