<svg width="102" height="111" viewBox="0 0 102 111" fill="none" xmlns="http://www.w3.org/2000/svg">
<g opacity="0.8">
<path d="M51.2604 110.722C79.1292 110.722 101.721 108.496 101.721 105.751C101.721 103.006 79.1292 100.781 51.2604 100.781C23.3916 100.781 0.7994 103.006 0.7994 105.751C0.7994 108.496 23.3916 110.722 51.2604 110.722Z" fill="black"/>
</g>
<path d="M49.8737 99.7473C77.4181 99.7473 99.7473 77.4181 99.7473 49.8737C99.7473 22.3292 77.4181 0 49.8737 0C22.3292 0 0 22.3292 0 49.8737C0 77.4181 22.3292 99.7473 49.8737 99.7473Z" fill="#AF4700"/>
<path d="M73.3721 57.5197C75.6181 61.3971 75.6724 65.8564 74.4869 70.2016C78.3263 68.8475 81.2683 71.9472 82.4321 75.3461C84.0146 79.9686 83.634 87.6962 78.6743 97.9799C78.8211 98.0614 78.9625 98.143 79.0985 98.23C82.8508 100.547 82.8508 104.691 79.0985 107.013C76.2489 108.769 72.1322 109.014 68.9345 107.915C65.677 109.041 61.5658 108.742 58.7705 107.013C57.7318 106.371 56.9814 105.588 56.5191 104.745C52.2175 105.805 47.5244 105.811 43.2227 104.745C42.7605 105.588 42.01 106.371 40.9713 107.013C38.1707 108.742 34.0594 109.041 30.8074 107.915C27.6097 109.019 23.493 108.775 20.6434 107.013C16.891 104.696 16.891 100.552 20.6434 98.23C20.7848 98.143 20.9262 98.0614 21.0675 97.9799C16.1134 87.6962 15.7272 79.974 17.3098 75.3461C18.4735 71.9472 21.421 68.8475 25.255 70.2016C24.0694 65.8564 24.1293 61.3971 26.3698 57.5197C24.9939 56.568 23.7649 55.4804 22.7099 54.3166C23.8573 54.0882 25.0701 53.8924 26.1958 53.5933C21.557 52.2936 19.0609 49.6669 17.7339 47.024C18.479 47.1164 20.4911 47.4482 22.6555 47.3013C19.931 45.6753 18.1255 43.5272 17.5273 41.6511C20.2301 41.3846 22.2476 40.732 23.7323 39.2582C22.6773 39.8293 21.47 40.3731 20.0778 40.9006C20.0234 36.6316 19.534 35.7778 16.3961 32.6726C4.1874 20.5889 22.6337 12.5785 32.8195 10.5174C42.8203 7.17291 56.9161 7.17291 66.917 10.5174C77.1027 12.573 95.549 20.5889 83.3403 32.6726C80.2079 35.7778 79.713 36.6316 79.6586 40.9006C78.2665 40.3785 77.0592 39.8293 76.0042 39.2582C77.4834 40.7266 79.5009 41.3846 82.2091 41.6511C81.611 43.5272 79.8055 45.6808 77.0809 47.3013C79.2399 47.4482 81.252 47.111 82.0025 47.024C80.6756 49.6615 78.1849 52.2936 73.5407 53.5933C74.6664 53.8924 75.8791 54.0882 77.0265 54.3166C75.9715 55.4749 74.7425 56.5626 73.3721 57.5143V57.5197Z" fill="black"/>
<path d="M64.8178 99.1599C63.0939 99.1599 61.37 99.5569 60.0866 100.345C57.9929 101.64 57.9222 103.413 59.8799 104.74L60.5923 102.097L61.5168 105.539C62.2184 105.778 62.9797 105.936 63.7628 106.012L64.8178 102.097L65.8728 106.012C66.6559 105.936 67.4173 105.778 68.1188 105.539L69.0433 102.097L69.7557 104.74C71.7134 103.418 71.6427 101.64 69.549 100.345C68.2656 99.5515 66.5417 99.1599 64.8178 99.1599Z" fill="#F0BA8E"/>
<path d="M70.8053 78.4133C69.1792 81.0237 67.2759 83.373 65.3725 85.2491C65.3725 85.2383 65.0625 81.2466 65.0299 79.4248C64.1598 82.7802 62.735 85.9615 60.5216 88.4522L60.4401 97.4144C63.2788 96.3485 66.8354 96.4029 69.6034 97.5721C70.5388 90.3991 70.7672 83.0195 70.8053 78.4133Z" fill="#F0BA8E"/>
<path d="M72.1213 99.1981C74.1933 101.221 74.1933 103.995 72.1213 106.023C73.0458 106.105 74.0029 106.067 74.9111 105.909L75.8465 102.434L76.6513 105.436C77.0538 105.278 77.4344 105.093 77.7825 104.876C79.9469 103.538 79.9469 101.683 77.7825 100.351C76.2054 99.3776 74.0628 99.0349 72.1104 99.2035L72.1213 99.1981Z" fill="#F0BA8E"/>
<path d="M76.3413 97.0609C81.0508 87.3755 81.4804 80.2841 80.0665 76.1456C78.919 72.7902 76.0042 70.7183 73.2905 74.1335C73.334 76.3359 73.4428 86.5597 72.2355 96.6802C73.6005 96.5986 75.0144 96.7183 76.3413 97.0609Z" fill="#F0BA8E"/>
<path d="M57.8134 58.0417C62.5882 59.0423 66.868 57.7589 71.273 55.4694C69.6796 55.0887 67.4336 53.7618 66.4765 52.908C69.8373 52.7666 74.835 50.6457 76.2924 49.7104C74.6664 49.4711 72.6108 49.2318 70.4844 47.9919C73.1219 47.4318 76.9559 44.5278 77.9728 43.4836C73.1655 41.7434 71.4252 36.1094 71.2566 35.5221C66.6396 29.7957 70.4953 22.8566 66.1284 16.6733C73.5026 20.6051 66.4058 32.0036 77.3855 37.3113C77.9728 34.4943 79.8055 32.6779 81.5838 30.916C91.8185 20.7846 74.3619 14.5633 66.3786 12.9699L66.2263 12.9264C56.7149 9.71789 43.0161 9.71789 33.5047 12.9264L33.3524 12.9699C25.3746 14.5633 7.91802 20.7846 18.1473 30.916C19.9255 32.6779 21.7637 34.4943 22.3455 37.3113C33.3253 32.0036 26.2284 20.6106 33.6026 16.6733C29.2357 22.8566 33.0914 29.7903 28.4744 35.5221C28.3058 36.1094 26.5656 41.7434 21.7582 43.4836C22.7752 44.5278 26.6091 47.4318 29.2466 47.9919C27.1203 49.2318 25.0592 49.4711 23.4386 49.7104C24.8906 50.6457 29.8938 52.7666 33.2546 52.908C32.2974 53.7618 30.0515 55.0887 28.4581 55.4694C32.863 57.7589 37.1429 59.0423 41.9176 58.0417C44.5171 62.5934 55.1977 62.5934 57.7971 58.0417H57.8134Z" fill="#F0BA8E"/>
<path d="M28.5288 58.8303C27.4629 60.9023 24.5589 68.5103 32.2376 79.0332C32.4551 74.7207 33.7385 71.5067 35.147 70.2342C35.147 70.2614 35.7289 80.9203 41.2433 86.9512C40.8735 84.0527 40.6396 81.2194 41.1726 78.7504C41.1726 78.7667 44.6911 85.7004 49.8737 90.6818C55.0563 85.695 58.5748 78.7667 58.5748 78.7504C59.1077 81.2194 58.8739 84.0527 58.5041 86.9512C64.0184 80.9203 64.6003 70.2614 64.6003 70.2342C66.0088 71.5067 67.2922 74.7153 67.5097 79.0332C75.1885 68.5103 72.279 60.9023 71.2186 58.8303C67.7109 60.6847 63.4963 61.6201 58.9446 60.8153C55.0835 64.8667 44.6639 64.8667 40.8028 60.8153C36.251 61.6201 32.0364 60.6847 28.5288 58.8303Z" fill="#F0BA8E"/>
<path d="M30.1439 97.5721C32.9119 96.4029 36.4685 96.3485 39.3073 97.4144L39.2257 88.4522C37.0123 85.9615 35.5875 82.7802 34.7174 79.4248C34.6848 81.2466 34.3748 85.2383 34.3748 85.2491C32.4715 83.373 30.5681 81.0237 28.9421 78.4133C28.9801 83.0195 29.214 90.3991 30.1439 97.5775V97.5721Z" fill="#F0BA8E"/>
<path d="M27.5118 96.6803C26.3045 86.5598 26.4187 76.336 26.4568 74.1335C23.7432 70.7238 20.8283 72.7903 19.6808 76.1456C18.2615 80.2841 18.6965 87.3809 23.406 97.0609C24.7329 96.7129 26.1468 96.5932 27.5118 96.6803Z" fill="#F0BA8E"/>
<path d="M55.9753 102.292C56.0732 101.053 56.7204 99.8289 57.9276 98.8337L58.0038 90.72C57.2533 91.2529 56.4376 91.7206 55.5511 92.1121C55.5511 92.1121 55.959 89.79 55.8394 87.9519C54.6375 89.8335 52.174 92.1502 49.8791 94.0372C47.5842 92.1502 45.1207 89.8335 43.9188 87.9519C43.7992 89.79 44.2071 92.1067 44.2071 92.1121C43.3206 91.7206 42.5104 91.2529 41.7544 90.72L41.8306 98.8337C43.0379 99.8289 43.685 101.053 43.7829 102.292C47.7093 103.266 52.0598 103.271 55.9862 102.292H55.9753Z" fill="#F0BA8E"/>
<path d="M61.4788 28.3872C63.5888 28.3872 65.2964 30.0948 65.2964 32.2048C65.2964 34.3148 63.5888 36.0224 61.4788 36.0224C59.3688 36.0224 57.6612 34.3148 57.6612 32.2048C57.6612 30.0948 59.3688 28.3872 61.4788 28.3872Z" fill="black"/>
<path d="M57.9004 24.8742C57.9004 24.8742 61.5658 22.9653 64.3393 25.7008C64.3393 25.7008 61.5658 24.053 58.0962 25.8748L57.9004 24.8796V24.8742Z" fill="black"/>
<path d="M38.2686 28.3872C36.1586 28.3872 34.451 30.0948 34.451 32.2048C34.451 34.3148 36.1586 36.0224 38.2686 36.0224C40.3786 36.0224 42.0862 34.3148 42.0862 32.2048C42.0862 30.0948 40.3786 28.3872 38.2686 28.3872Z" fill="black"/>
<path d="M41.8469 24.8742C41.8469 24.8742 38.1816 22.9653 35.4081 25.7008C35.4081 25.7008 38.1816 24.053 41.6511 25.8748L41.8469 24.8796V24.8742Z" fill="black"/>
<path d="M55.0617 40.0088C55.0617 41.3847 53.3052 42.5322 50.9613 42.8095V45.4362C59.9343 52.0273 64.8069 37.094 68.9237 44.6531C66.8191 42.7443 64.0238 46.8066 59.9506 48.8296C62.9308 62.2728 36.8057 62.2728 39.7858 48.8296C35.7181 46.8011 32.9174 42.7388 30.8128 44.6531C34.9295 37.094 39.8021 52.0273 48.7752 45.4362V42.8095C46.4313 42.5322 44.6748 41.3847 44.6748 40.0088C44.6748 36.2565 55.0508 36.2565 55.0508 40.0088H55.0617Z" fill="black"/>
<path d="M73.2851 74.1335C81.5838 73.1763 80.0502 86.8806 80.0502 86.8806C81.0998 82.269 80.9203 78.6635 80.0611 76.1456C78.9136 72.7902 75.9987 70.7183 73.2851 74.1335Z" fill="#FFE7D4"/>
<path d="M77.7064 94.0372C73.5353 91.3942 73.1165 85.4231 73.1165 85.4231C72.9642 88.8818 72.6978 92.7918 72.2301 96.6802C73.5951 96.5986 75.009 96.7182 76.3359 97.0608C76.8417 96.0221 77.2985 95.0161 77.7064 94.0372Z" fill="#BF8F67"/>
<path d="M68.9236 44.653C66.8191 42.7442 64.0238 46.8066 59.9506 48.8296C61.4407 55.5512 55.6545 58.912 49.8682 58.912C44.082 58.912 38.2957 55.5512 39.7858 48.8296C35.718 46.8011 32.9174 42.7388 30.8128 44.653C34.9295 37.094 39.8021 52.0272 48.7751 45.4361V42.8095C46.4313 42.5322 44.6747 41.3847 44.6747 40.0088C44.6747 38.1327 47.2688 37.1918 49.8628 37.1918C52.4568 37.1918 55.0508 38.1327 55.0508 40.0088C55.0508 41.3847 53.2943 42.5322 50.9504 42.8095V45.4361C59.9234 52.0272 64.7961 37.094 68.9128 44.653H68.9236ZM49.8682 61.4571C53.1855 61.4571 56.5083 60.3205 57.808 58.0419C62.5827 59.0425 66.8626 57.7591 71.2675 55.4696C69.6741 55.0889 67.4281 53.762 66.471 52.9082C69.8318 52.7668 74.8295 50.6459 76.287 49.7106C74.6609 49.4713 72.6053 49.232 70.479 47.9921C73.1165 47.432 76.9504 44.528 77.9674 43.4838C68.5974 47.7854 72.1811 36.3163 58.8793 40.6505C56.4702 35.6093 53.5009 34.0431 53.5009 34.0431C50.5861 18.8108 64.2033 12.3121 64.2033 12.3121C59.8691 11.1211 54.8659 10.5229 49.8628 10.5229C44.8596 10.5229 39.8565 11.1211 35.5223 12.3121C35.5223 12.3121 49.1395 18.8108 46.2246 34.0431C46.2246 34.0431 43.2554 35.6093 40.8463 40.6505C27.5444 36.3163 31.1282 47.7854 21.7582 43.4838C22.7751 44.528 26.6091 47.432 29.2466 47.9921C27.1203 49.232 25.0592 49.4713 23.4386 49.7106C24.8906 50.6459 29.8937 52.7668 33.2545 52.9082C32.2974 53.762 30.0514 55.0889 28.4581 55.4696C32.863 57.7591 37.1428 59.0425 41.9176 58.0419C43.2173 60.3205 46.54 61.4571 49.8573 61.4571H49.8682Z" fill="white"/>
<path d="M49.8737 95.9297C52.8484 95.9297 55.6164 96.8107 57.9276 98.3225L57.9983 90.72C57.2479 91.2529 56.4321 91.7206 55.5457 92.1121C55.5457 92.1121 55.9536 89.79 55.8339 87.9519C54.6321 89.8335 52.1686 92.1502 49.8737 94.0372C47.5787 92.1502 45.1152 89.8335 43.9134 87.9519C43.7938 89.79 44.2016 92.1067 44.2016 92.1121C43.3152 91.7206 42.5049 91.2529 41.749 90.72L41.8197 98.3225C44.1364 96.8053 46.9044 95.9297 49.8737 95.9297Z" fill="#BF8F67"/>
<path d="M34.9295 99.1599C36.6534 99.1599 38.3773 99.5569 39.6608 100.345C41.7545 101.64 41.8252 103.413 39.8674 104.74L39.155 102.097L38.2305 105.539C37.529 105.778 36.7676 105.936 35.9845 106.012L34.9295 102.097L33.8745 106.012C33.0914 105.936 32.3301 105.778 31.6285 105.539L30.7041 102.097L29.9916 104.74C28.0339 103.418 28.1046 101.64 30.1983 100.345C31.4817 99.5515 33.2056 99.1599 34.9295 99.1599Z" fill="#F0BA8E"/>
<path d="M27.6206 99.1981C25.5486 101.221 25.5486 103.995 27.6206 106.023C26.6961 106.105 25.739 106.067 24.8308 105.909L23.8954 102.434L23.0906 105.436C22.6881 105.278 22.3075 105.093 21.9594 104.876C19.795 103.538 19.795 101.683 21.9594 100.351C23.5365 99.3776 25.6791 99.0349 27.6315 99.2035L27.6206 99.1981Z" fill="#F0BA8E"/>
<path d="M26.4568 74.1335C18.1581 73.1763 19.6917 86.8806 19.6917 86.8806C18.6421 82.269 18.8216 78.6635 19.6808 76.1456C20.8283 72.7902 23.7432 70.7183 26.4568 74.1335Z" fill="#FFE7D4"/>
<path d="M22.0356 94.0372C26.2066 91.3942 26.6254 85.4231 26.6254 85.4231C26.7777 88.8818 27.0441 92.7918 27.5118 96.6802C26.1468 96.5986 24.7329 96.7182 23.406 97.0608C22.9002 96.0221 22.4434 95.0161 22.0356 94.0372Z" fill="#BF8F67"/>
<path d="M55.7904 54.6103C54.4907 51.5378 49.8737 52.6907 49.8737 52.6907C49.8737 52.6907 45.2566 51.5432 43.9569 54.6103C45.4578 55.8448 47.6658 56.4593 49.8737 56.4593C52.0816 56.4593 54.2895 55.8448 55.7904 54.6103Z" fill="#FF0000"/>
<path d="M70.5279 27.3378C71.0881 31.0684 72.2899 34.848 77.3909 37.3061C77.9783 34.4891 79.8109 32.6727 81.5892 30.9107C84.1561 28.3711 84.9827 26.0762 84.6509 24.0369C84.0147 28.1101 78.049 28.7246 76.4936 33.6081C73.0948 31.9657 71.4307 29.7415 70.5279 27.3324V27.3378Z" fill="#BF8F67"/>
<path d="M29.214 27.3378C28.6539 31.0684 27.452 34.848 22.351 37.3061C21.7637 34.4891 19.931 32.6727 18.1527 30.9107C15.5859 28.3711 14.7593 26.0762 15.091 24.0369C15.7273 28.1101 21.693 28.7246 23.2483 33.6081C26.6472 31.9657 28.3112 29.7415 29.214 27.3324V27.3378Z" fill="#BF8F67"/>
<path d="M49.8737 90.6872C55.0563 85.7004 58.5748 78.7722 58.5748 78.7559C58.5748 78.7559 55.5457 83.4327 49.8737 87.7724C44.2016 83.4327 41.1726 78.7559 41.1726 78.7559C41.1726 78.7722 44.6911 85.7059 49.8737 90.6872Z" fill="#FFE7D4"/>
<path d="M58.5748 78.756C59.1077 81.2249 58.8739 84.0582 58.5041 86.9567C64.0184 80.9258 64.6003 70.2669 64.6003 70.2397C64.6003 70.2397 63.5126 76.2163 60.5543 81.3663L58.5748 78.756Z" fill="#FFE7D4"/>
<path d="M65.6227 71.5448C66.5852 73.1872 67.352 75.803 67.5097 79.0332C72.5836 72.0832 73.0349 66.4003 72.453 62.7458C72.453 62.7458 72.763 67.3139 68.3527 75.0416L65.6227 71.5394V71.5448Z" fill="#FFE7D4"/>
<path d="M41.1726 78.756C40.6396 81.2249 40.8735 84.0582 41.2433 86.9567C35.7289 80.9258 35.1471 70.2669 35.1471 70.2397C35.1471 70.2397 36.2347 76.2163 39.1931 81.3663L41.1726 78.756Z" fill="#FFE7D4"/>
<path d="M34.1247 71.5448C33.1621 73.1872 32.3953 75.803 32.2376 79.0332C27.1638 72.0832 26.7124 66.4003 27.2943 62.7458C27.2943 62.7458 26.9843 67.3139 31.3947 75.0416L34.1247 71.5394V71.5448Z" fill="#FFE7D4"/>
<path d="M40.1828 63.8389C44.305 67.8904 55.4315 67.8904 59.5591 63.8389C64.2686 64.6166 68.6409 63.7628 72.3171 62.0225C72.0017 60.5216 71.5286 59.4394 71.2186 58.8303C67.711 60.6847 63.4964 61.6201 58.9446 60.8153C55.0835 64.8667 44.6639 64.8667 40.8028 60.8153C36.251 61.6201 32.0364 60.6847 28.5288 58.8303C28.2188 59.4394 27.7457 60.527 27.4303 62.0225C31.1065 63.7628 35.4734 64.6166 40.1883 63.8389H40.1828Z" fill="#BF8F67"/>
<path d="M37.4039 31.4546C38.0917 31.4546 38.6493 30.897 38.6493 30.2092C38.6493 29.5214 38.0917 28.9639 37.4039 28.9639C36.7161 28.9639 36.1586 29.5214 36.1586 30.2092C36.1586 30.897 36.7161 31.4546 37.4039 31.4546Z" fill="white"/>
<path d="M39.378 35.2939C39.8195 35.2939 40.1774 34.936 40.1774 34.4945C40.1774 34.053 39.8195 33.6951 39.378 33.6951C38.9365 33.6951 38.5786 34.053 38.5786 34.4945C38.5786 34.936 38.9365 35.2939 39.378 35.2939Z" fill="white"/>
<path d="M62.3434 31.4546C63.0312 31.4546 63.5888 30.897 63.5888 30.2092C63.5888 29.5214 63.0312 28.9639 62.3434 28.9639C61.6557 28.9639 61.0981 29.5214 61.0981 30.2092C61.0981 30.897 61.6557 31.4546 62.3434 31.4546Z" fill="white"/>
<path d="M60.3639 35.2939C60.8054 35.2939 61.1634 34.936 61.1634 34.4945C61.1634 34.053 60.8054 33.6951 60.3639 33.6951C59.9224 33.6951 59.5645 34.053 59.5645 34.4945C59.5645 34.936 59.9224 35.2939 60.3639 35.2939Z" fill="white"/>
<path d="M28.9421 78.4133C28.9421 78.4133 30.6823 84.428 35.2177 89.8063L35.3591 86.5271C35.3591 86.5271 36.8655 89.8281 39.2583 92.1013L39.2257 88.4577C37.0123 85.967 35.5875 82.7856 34.7174 79.4303C34.6848 81.2521 34.3748 85.2437 34.3748 85.2546C32.4715 83.3784 30.5681 81.0291 28.9421 78.4188V78.4133Z" fill="#BF8F67"/>
<path d="M70.8053 78.4133C70.8053 78.4133 69.0651 84.428 64.5296 89.8063L64.3882 86.5271C64.3882 86.5271 62.8818 89.8281 60.489 92.1013L60.5217 88.4577C62.735 85.967 64.1598 82.7856 65.0299 79.4303C65.0625 81.2521 65.3725 85.2437 65.3725 85.2546C67.2759 83.3784 69.1793 81.0291 70.8053 78.4188V78.4133Z" fill="#BF8F67"/>
</svg>
