<svg width="377" height="184" viewBox="0 0 377 184" fill="none" xmlns="http://www.w3.org/2000/svg">
<path d="M8.95673 146.382C9.81597 146.154 10.5936 146.04 11.2843 146.04C12.1163 146.04 12.9049 146.181 13.6553 146.469C14.4004 146.758 15.1073 147.231 15.7653 147.894C15.8795 147.72 15.9394 147.562 15.9394 147.421C15.9394 147.394 15.9339 147.334 15.9176 147.247C15.9013 147.16 15.8795 147.046 15.8524 146.904V146.257C15.8524 144.762 15.9448 143.228 16.1351 141.646C16.32 140.069 16.6572 138.443 17.1467 136.778C17.3751 135.974 17.7122 135.103 18.1582 134.174C18.6041 133.238 19.137 132.363 19.7515 131.547C20.3715 130.726 21.0785 130.046 21.8833 129.502C22.6882 128.958 23.58 128.681 24.5535 128.681C25.5867 128.681 26.5058 129.018 27.3106 129.692C28.1155 130.367 28.6158 131.308 28.817 132.515C28.8768 132.89 28.904 133.26 28.904 133.635C28.904 134.065 28.8551 134.576 28.7518 135.163C28.6484 135.751 28.4853 136.42 28.2569 137.17C27.9415 138.002 27.5934 138.829 27.2236 139.65C26.8484 140.471 26.4623 141.281 26.0598 142.086C25.4562 143.38 24.8961 144.68 24.3794 145.985C23.8628 147.29 23.4441 148.65 23.1287 150.058C22.8132 151.641 22.6555 153.218 22.6555 154.801C22.6555 155.894 22.7262 156.987 22.8731 158.074C22.9274 158.477 22.9655 158.809 22.9818 159.064C22.9981 159.325 23.0036 159.526 23.0036 159.668C23.0036 159.929 22.9873 160.184 22.9601 160.445C22.9601 161.022 22.7861 161.582 22.4435 162.126C22.1008 162.67 21.5951 162.947 20.9371 162.947C20.4476 162.947 20.0398 162.768 19.708 162.409C19.3763 162.05 19.1261 161.669 18.9521 161.267C18.2887 159.972 17.7666 158.651 17.3805 157.302C16.9944 155.954 16.7116 154.561 16.5376 153.12C16.4778 152.718 16.3636 152.424 16.195 152.239C16.0209 152.054 15.7762 151.886 15.4608 151.744C15.0856 151.603 14.7756 151.521 14.5363 151.505C14.2916 151.489 14.0958 151.483 13.9544 151.483C13.726 151.483 13.4813 151.5 13.2203 151.527C12.4752 151.674 11.79 151.777 11.1755 151.848C10.5556 151.918 10.0172 151.956 9.56037 151.956C9.24496 151.956 8.92954 151.94 8.61413 151.913H8.48361C8.34221 151.913 8.23889 151.962 8.18451 152.065C8.12469 152.169 8.0975 152.315 8.0975 152.517C8.12469 153.147 8.18995 153.767 8.29327 154.371C8.39116 154.975 8.51624 155.595 8.65763 156.225C8.71201 156.655 8.77727 157.079 8.85341 157.498C8.9241 157.917 9.00568 158.335 9.09269 158.77C9.15251 158.945 9.17969 159.113 9.17969 159.287C9.17969 159.347 9.17426 159.434 9.15794 159.548C9.14163 159.662 9.109 159.836 9.04918 160.065C8.93498 160.641 8.70657 161.087 8.35853 161.403C8.01592 161.718 7.6135 161.876 7.15125 161.876C6.48779 161.876 5.87872 161.626 5.31858 161.12C4.75845 160.619 4.24726 159.972 3.79045 159.178C3.3282 158.39 2.92034 157.498 2.56141 156.508C2.20249 155.518 1.88708 154.545 1.61517 153.599C1.34326 152.653 1.12574 151.777 0.968028 150.972C0.810321 150.167 0.685243 149.536 0.60367 149.074C0.402457 147.813 0.250187 146.616 0.152299 145.496C0.0489736 144.376 3.05176e-05 143.299 3.05176e-05 142.266V141.488C0.0272215 140.368 0.163176 139.106 0.407895 137.697C0.652614 136.289 1.05504 134.946 1.61517 133.668C2.17531 132.39 2.90946 131.264 3.8122 130.285C4.71494 129.306 5.81889 128.676 7.10774 128.387C7.42316 128.327 7.73858 128.3 8.05399 128.3C8.59781 128.3 9.19057 128.425 9.8214 128.665C10.4522 128.909 11.0124 129.421 11.5018 130.193C12.2196 131.34 12.5786 132.635 12.5786 134.07C12.5786 134.358 12.5623 134.647 12.5351 134.929C12.4209 135.908 12.2251 136.855 11.9532 137.774C11.6813 138.693 11.3713 139.612 11.0287 140.531C11.0015 140.678 10.9417 140.819 10.8547 140.96L10.7677 141.26C10.7078 141.406 10.6534 141.548 10.5936 141.689L9.73439 143.973C9.58756 144.376 9.45161 144.778 9.32653 145.18C9.19601 145.583 9.07637 145.985 8.96217 146.388L8.95673 146.382Z" fill="black"/>
<path d="M29.9862 147.851C29.9862 146.844 30.0515 145.773 30.182 144.642C30.3125 143.505 30.5137 142.374 30.7856 141.238C31.0575 140.101 31.4382 139.024 31.9277 138.007C32.4171 136.985 33.0316 136.104 33.7821 135.359C34.2389 134.929 34.7066 134.592 35.1851 134.348C35.6583 134.103 36.1803 133.983 36.7568 133.983C37.8499 133.983 38.7526 134.326 39.4704 135.016C40.1883 135.707 40.6505 136.583 40.8517 137.643C41.0529 138.589 41.1345 139.53 41.091 140.465C41.0475 141.401 40.9387 142.325 40.7701 143.244C40.5689 144.278 40.3514 145.305 40.123 146.328C39.8946 147.35 39.6771 148.389 39.4759 149.455C39.1006 151.44 39.0463 153.506 39.3018 155.66C39.3889 156.263 39.5683 156.785 39.8402 157.231C40.1121 157.677 40.4439 158.042 40.83 158.33C41.2161 158.618 41.6511 158.825 42.1243 158.955C42.5974 159.086 43.0651 159.151 43.5273 159.151C44.131 159.151 44.6965 159.037 45.2295 158.809C45.7624 158.58 46.2247 158.27 46.6325 157.884C47.0349 157.498 47.3504 157.036 47.5788 156.503C47.8072 155.97 47.9214 155.404 47.9214 154.801C47.9214 154.143 47.8616 153.485 47.7474 152.837C47.6332 152.19 47.5298 151.538 47.4482 150.874C47.16 149.177 46.9262 147.508 46.7358 145.855C46.5509 144.202 46.5292 142.516 46.6706 140.792C46.725 140.188 46.8555 139.557 47.0567 138.894C47.2579 138.236 47.5353 137.621 47.8996 137.061C48.2585 136.501 48.699 136.033 49.2157 135.658C49.7323 135.283 50.3522 135.098 51.0701 135.098C51.962 135.098 52.7994 135.359 53.5934 135.876C54.382 136.392 55.0237 137.012 55.5131 137.73C56.1439 138.649 56.6062 139.606 56.8944 140.596C57.1826 141.586 57.3512 142.63 57.411 143.723C57.5524 145.822 57.4545 147.867 57.1119 149.863C56.7693 151.858 56.133 153.822 55.214 155.747C53.0278 160.342 49.3679 162.729 44.2234 162.898C42.7877 162.952 41.4227 162.816 40.1284 162.49C38.8342 162.158 37.5453 161.691 36.251 161.087C34.7011 160.282 33.4667 159.118 32.5476 157.596C31.6286 156.1 30.9651 154.534 30.5627 152.897C30.1602 151.26 29.9753 149.58 30.0025 147.856L29.9862 147.851Z" fill="black"/>
<path d="M71.099 143.109C71.3002 142.907 71.4633 142.744 71.5938 142.614C71.7243 142.483 71.8603 142.363 72.0017 142.249C72.8065 141.472 73.6821 140.841 74.6283 140.351C75.5746 139.862 76.6133 139.617 77.7335 139.617C78.4242 139.617 79.1148 139.721 79.8001 139.916C80.4907 140.118 81.127 140.433 81.7197 140.863C82.3071 141.292 82.8183 141.863 83.2479 142.565C83.6775 143.266 83.982 144.125 84.1506 145.126C84.4388 146.823 84.4388 148.465 84.1506 150.059C83.8624 151.652 83.46 153.256 82.9433 154.866C82.7693 155.442 82.5191 156.117 82.1874 156.889C81.8557 157.667 81.4533 158.395 80.9801 159.086C80.507 159.777 79.9686 160.364 79.365 160.853C78.7614 161.343 78.087 161.587 77.342 161.587C76.6785 161.587 76.0749 161.359 75.5311 160.897C74.9873 160.44 74.612 159.793 74.4108 158.955C74.264 158.297 74.215 157.65 74.2585 157.014C74.302 156.383 74.3945 155.736 74.5413 155.073C74.6827 154.328 74.8785 153.588 75.1232 152.854C75.3679 152.12 75.6018 151.38 75.8356 150.635C76.238 149.455 76.5263 148.28 76.6948 147.1C76.7492 146.671 76.7873 146.241 76.8036 145.806C76.8199 145.376 76.7547 144.958 76.6078 144.555C76.2652 143.348 75.4713 142.831 74.2368 143.005C73.3177 143.092 72.4531 143.495 71.6536 144.212C70.8488 144.93 70.2615 145.692 69.8862 146.497C69.3968 147.644 69.0052 148.808 68.7007 149.988C68.4016 151.168 68.2602 152.402 68.2928 153.691C68.32 154.61 68.4451 155.497 68.6572 156.34C68.8747 157.188 69.1793 158.025 69.5817 158.863C69.7231 159.178 69.8645 159.472 69.9896 159.744C70.1201 160.016 70.2397 160.31 70.3539 160.625C70.5279 161.142 70.4681 161.566 70.1799 161.897C69.8917 162.229 69.4784 162.349 68.9291 162.262C68.5539 162.175 68.1514 161.99 67.7218 161.702C67.2922 161.413 66.8789 161.076 66.4928 160.69C66.1067 160.304 65.7587 159.902 65.4595 159.483C65.1604 159.064 64.9212 158.7 64.7471 158.384C61.903 152.897 61.1688 147.165 62.5501 141.189C62.6915 140.585 62.9145 139.927 63.219 139.204C63.5181 138.486 63.8988 137.823 64.361 137.219C64.8178 136.615 65.3453 136.104 65.9327 135.691C66.52 135.272 67.1726 135.065 67.8958 135.065C68.4723 135.065 68.9998 135.218 69.4892 135.517C69.9787 135.816 70.392 136.256 70.74 136.833C71.0554 137.377 71.2621 137.948 71.3654 138.535C71.4633 139.122 71.5014 139.737 71.4742 140.368C71.447 140.77 71.3872 141.194 71.3002 141.64C71.2132 142.086 71.1425 142.565 71.0826 143.081L71.099 143.109Z" fill="black"/>
<path d="M104.669 148.927C104.696 148.411 104.669 147.965 104.582 147.59C104.495 147.214 104.424 146.845 104.364 146.469C104.337 146.268 104.305 146.072 104.277 145.887C104.25 145.703 104.207 145.523 104.147 145.349L103.717 143.065C103.657 142.864 103.625 142.679 103.608 142.505C103.592 142.331 103.56 142.146 103.5 141.945C103.385 141.254 103.337 140.574 103.347 139.9C103.364 139.226 103.44 138.54 103.587 137.855C103.701 137.339 103.886 136.849 104.147 136.392C104.408 135.936 104.723 135.517 105.093 135.142C105.468 134.766 105.893 134.473 106.366 134.261C106.839 134.043 107.35 133.94 107.894 133.94C108.987 133.94 109.906 134.304 110.651 135.038C111.396 135.772 111.972 136.599 112.375 137.518C112.804 138.464 113.093 139.443 113.234 140.449C113.375 141.455 113.435 142.472 113.408 143.511C113.348 145.577 113.065 147.568 112.549 149.482C112.032 151.391 111.325 153.267 110.439 155.105C109.547 156.916 108.394 158.417 106.969 159.608C105.55 160.799 103.918 161.74 102.08 162.43C101.188 162.773 100.291 163.05 99.3884 163.252C98.4857 163.453 97.5558 163.551 96.6095 163.551C95.2282 163.578 93.9448 163.328 92.7538 162.795C91.5629 162.262 90.5459 161.528 89.7139 160.598C88.8818 159.662 88.2564 158.58 87.8377 157.346C87.419 156.111 87.2993 154.801 87.4733 153.425C87.6147 152.163 87.9247 150.978 88.3978 149.868C88.871 148.764 89.4909 147.785 90.2523 146.937C91.0136 146.089 91.9163 145.393 92.9659 144.849C94.0155 144.305 95.201 143.957 96.5225 143.815C97.1261 143.761 97.7135 143.794 98.2899 143.924C98.8664 144.055 99.4265 144.245 99.9703 144.506C101.634 145.251 102.956 146.371 103.935 147.867C104.049 148.014 104.158 148.161 104.256 148.318C104.353 148.476 104.495 148.683 104.663 148.944L104.669 148.927ZM94.2384 152.549C94.2983 151.973 94.2113 151.478 93.9774 151.065C93.749 150.646 93.401 150.412 92.9442 150.352C92.6287 150.292 92.3786 150.374 92.1883 150.591C92.0034 150.809 91.8783 151.103 91.8239 151.472C91.7641 152.076 91.8674 152.614 92.123 153.088C92.384 153.561 92.7103 153.827 93.1127 153.887C93.401 153.947 93.6457 153.843 93.8469 153.588C94.0481 153.327 94.1786 152.984 94.233 152.555L94.2384 152.549ZM92.7321 156.171C92.6723 156.862 93.004 157.465 93.7218 157.982C94.4397 158.499 95.3152 158.814 96.3485 158.928C97.3817 159.042 98.2518 158.901 98.9534 158.499C99.6549 158.096 100.052 157.563 100.139 156.905C100.193 156.503 100.144 156.193 99.9866 155.981C99.8289 155.763 99.6495 155.573 99.4482 155.399C99.247 155.225 99.0513 155.045 98.8664 154.86C98.6815 154.676 98.5564 154.42 98.502 154.105C98.415 153.528 98.0724 153.202 97.4687 153.115C97.2947 153.088 97.0935 153.115 96.8651 153.202C96.6367 153.289 96.4355 153.419 96.2615 153.588C95.9732 153.903 95.6959 154.088 95.424 154.148C95.1521 154.208 94.8856 154.24 94.6246 154.257C94.3635 154.273 94.1243 154.322 93.8904 154.409C93.662 154.496 93.4445 154.741 93.2433 155.143C93.1291 155.344 93.0203 155.524 92.9224 155.682C92.8191 155.839 92.7593 156.002 92.7266 156.176L92.7321 156.171ZM97.4742 150.782C97.5286 150.238 97.4959 149.797 97.3654 149.466C97.2349 149.134 97.0119 148.944 96.6965 148.884C96.2941 148.824 95.9352 149.009 95.6198 149.422C95.3043 149.841 95.1194 150.292 95.0596 150.782C94.9998 151.271 95.0651 151.701 95.2554 152.076C95.4403 152.451 95.7068 152.663 96.0548 152.723C96.43 152.783 96.7455 152.614 97.0011 152.228C97.2621 151.842 97.4198 151.358 97.4742 150.787V150.782ZM100.835 151.772C100.895 151.282 100.835 150.874 100.661 150.542C100.487 150.211 100.242 150.02 99.9268 149.961C99.5842 149.906 99.2633 150.053 98.9806 150.412C98.6923 150.771 98.5183 151.211 98.4639 151.728C98.3769 152.674 98.6923 153.191 99.4102 153.278C99.7528 153.338 100.063 153.218 100.335 152.935C100.607 152.647 100.77 152.261 100.83 151.772H100.835ZM102.129 153.022C101.928 152.995 101.721 153.028 101.504 153.131C101.286 153.234 101.096 153.37 100.922 153.539C100.748 153.708 100.607 153.903 100.492 154.121C100.378 154.338 100.307 154.572 100.275 154.833C100.248 155.094 100.313 155.323 100.471 155.524C100.628 155.725 100.808 155.839 101.009 155.866C101.439 155.926 101.846 155.758 102.238 155.372C102.624 154.986 102.847 154.545 102.907 154.056C102.934 153.767 102.869 153.534 102.711 153.343C102.553 153.158 102.358 153.05 102.129 153.022Z" fill="black"/>
<path d="M132.42 162.675H131.773C129.674 162.675 127.651 162.273 125.698 161.468C123.746 160.663 121.892 159.445 120.141 157.803C119.249 156.97 118.525 156.041 117.965 155.024C117.405 154.007 117.041 153.05 116.867 152.158C116.693 151.266 116.606 150.477 116.606 149.787C116.606 149.357 116.649 148.748 116.736 147.954C116.823 147.165 117.111 146.208 117.595 145.088C118.226 143.593 119.058 142.157 120.097 140.781C121.13 139.4 122.316 138.182 123.654 137.116C124.991 136.055 126.438 135.196 128.004 134.549C129.57 133.902 131.202 133.581 132.893 133.581C133.236 133.581 133.584 133.597 133.926 133.624C134.269 133.652 134.617 133.695 134.96 133.755C136.569 134.016 137.896 134.56 138.946 135.392C139.995 136.224 140.757 137.181 141.23 138.258C141.703 139.334 141.942 140.449 141.942 141.597C141.942 141.711 141.926 142.13 141.899 142.847C141.872 143.565 141.556 144.512 140.953 145.692C140.033 147.53 138.804 148.944 137.265 149.939C135.726 150.929 133.926 151.511 131.854 151.685C131.392 151.712 130.952 151.728 130.517 151.728C129.772 151.728 128.912 151.674 127.955 151.554C126.993 151.44 125.921 151.222 124.747 150.907C124.518 150.847 124.274 150.82 124.013 150.82C123.61 150.82 123.159 150.95 122.653 151.206C122.147 151.467 121.756 151.826 121.467 152.283C121.152 152.799 120.994 153.289 120.994 153.746C120.994 154.322 121.223 154.882 121.685 155.426C122.778 156.693 124.197 157.367 125.954 157.449C126.128 157.476 126.313 157.493 126.514 157.493C126.917 157.493 127.373 157.433 127.895 157.319C128.412 157.204 128.956 157.074 129.532 156.932C130.625 156.644 131.675 156.28 132.676 155.834C133.682 155.388 134.715 154.996 135.781 154.648C136.526 154.387 137.189 154.202 137.766 154.088C138.342 153.974 138.826 153.914 139.229 153.914C139.571 153.914 139.93 153.941 140.305 154.001C140.365 154.001 140.403 154.018 140.436 154.045H140.735C140.762 154.072 140.806 154.088 140.866 154.088C141.812 154.349 142.415 154.73 142.676 155.23C142.937 155.736 143.063 156.171 143.063 156.546C143.063 156.976 142.948 157.438 142.72 157.928C142.258 158.934 141.649 159.744 140.887 160.364C140.126 160.984 139.283 161.462 138.364 161.805C137.445 162.148 136.477 162.381 135.455 162.496C134.432 162.61 133.421 162.67 132.415 162.67L132.42 162.675ZM129.358 140.438C129.473 140.123 129.532 139.818 129.532 139.536C129.532 139.307 129.473 139.019 129.358 138.676C129.244 138.334 128.956 138.089 128.499 137.942C128.385 137.915 128.282 137.899 128.195 137.899C127.993 137.899 127.792 137.964 127.591 138.095C127.39 138.225 127.232 138.475 127.118 138.85C127.031 139.166 126.987 139.47 126.987 139.753C126.987 140.036 127.047 140.379 127.161 140.765C127.275 141.151 127.537 141.417 127.939 141.564C128.026 141.591 128.113 141.608 128.2 141.608C128.401 141.608 128.608 141.521 128.825 141.347C129.043 141.173 129.222 140.873 129.364 140.444L129.358 140.438ZM127.074 143.843C127.014 144.017 126.987 144.185 126.987 144.359C126.987 144.876 127.259 145.436 127.808 146.04C128.352 146.643 129.157 147.106 130.223 147.421C130.511 147.508 130.783 147.568 131.044 147.595C131.305 147.622 131.544 147.639 131.778 147.639C132.469 147.639 133.062 147.508 133.567 147.252C134.068 146.991 134.394 146.622 134.535 146.132C134.59 145.931 134.622 145.746 134.622 145.572C134.622 145.398 134.579 145.219 134.492 145.034C134.405 144.849 134.274 144.648 134.106 144.43C133.932 144.212 133.774 144 133.633 143.783C133.486 143.565 133.415 143.331 133.415 143.07V142.728C133.415 142.184 133.143 141.825 132.594 141.651C132.507 141.624 132.409 141.608 132.289 141.608C132.202 141.608 132.061 141.629 131.86 141.673C131.659 141.716 131.441 141.809 131.213 141.956C130.837 142.217 130.468 142.342 130.092 142.342C129.69 142.342 129.391 142.325 129.19 142.298C128.988 142.271 128.874 142.255 128.847 142.255C128.532 142.255 128.184 142.472 127.814 142.902C127.667 143.076 127.526 143.223 127.384 143.353C127.237 143.484 127.14 143.647 127.085 143.848L127.074 143.843ZM133.024 139.275C133.138 138.845 133.198 138.486 133.198 138.198C133.198 138.084 133.181 137.915 133.154 137.703C133.127 137.485 132.953 137.322 132.638 137.208C132.523 137.181 132.409 137.165 132.295 137.165C132.007 137.165 131.691 137.311 131.349 137.594C131.006 137.882 130.745 138.285 130.571 138.801C130.484 139.09 130.441 139.362 130.441 139.623C130.441 139.797 130.479 140.025 130.549 140.313C130.62 140.602 130.843 140.819 131.218 140.96C131.305 140.988 131.392 141.004 131.479 141.004C131.74 141.004 132.018 140.863 132.322 140.574C132.621 140.286 132.86 139.856 133.035 139.28L133.024 139.275ZM136.254 140.999C136.341 140.683 136.384 140.395 136.384 140.139C136.384 139.998 136.357 139.786 136.297 139.514C136.238 139.242 136.053 139.063 135.737 138.975C135.623 138.921 135.509 138.888 135.395 138.888C135.134 138.888 134.862 139.019 134.574 139.275C134.285 139.536 134.057 139.938 133.883 140.482C133.796 140.743 133.752 140.971 133.752 141.173C133.752 141.689 133.997 142.032 134.487 142.206C134.628 142.266 134.775 142.293 134.916 142.293C135.117 142.293 135.346 142.2 135.607 142.01C135.868 141.825 136.08 141.488 136.254 140.999ZM137.331 142.505C137.216 142.451 137.086 142.418 136.945 142.418C136.656 142.418 136.303 142.559 135.89 142.847C135.471 143.136 135.193 143.522 135.047 144.011C135.019 144.125 135.003 144.229 135.003 144.31C135.003 144.452 135.052 144.626 135.155 144.827C135.253 145.028 135.406 145.159 135.607 145.213C135.748 145.273 135.895 145.3 136.036 145.3C136.352 145.3 136.711 145.164 137.113 144.892C137.516 144.62 137.788 144.24 137.934 143.75C137.962 143.636 137.978 143.522 137.978 143.408C137.978 143.266 137.929 143.092 137.826 142.891C137.722 142.69 137.559 142.559 137.331 142.505Z" fill="black"/>
<path d="M153.455 150.309C153.596 150.222 153.694 150.124 153.738 150.009C153.781 149.895 153.83 149.781 153.89 149.667C154.265 148.862 154.749 148.09 155.353 147.339C155.957 146.594 156.636 145.936 157.398 145.376C158.159 144.816 158.975 144.365 159.856 144.017C160.731 143.674 161.629 143.5 162.548 143.5C163.407 143.5 164.233 143.652 165.027 143.951C165.816 144.25 166.523 144.686 167.137 145.246C167.757 145.806 168.258 146.475 168.644 147.252C169.03 148.03 169.269 148.889 169.356 149.835C169.53 151.902 169.313 153.849 168.709 155.676C168.105 157.503 167.159 159.216 165.865 160.826C165.375 161.43 164.772 161.93 164.054 162.332C163.336 162.735 162.591 162.936 161.813 162.936C160.835 162.936 160.062 162.604 159.486 161.946C158.909 161.288 158.665 160.407 158.752 159.32C158.779 158.89 158.85 158.466 158.969 158.047C159.083 157.628 159.214 157.221 159.355 156.818C159.415 156.617 159.486 156.432 159.573 156.258C159.66 156.084 159.731 155.899 159.79 155.698L160.65 153.501C160.709 153.327 160.78 153.147 160.867 152.962C160.954 152.778 161.025 152.598 161.085 152.424C161.226 152.081 161.346 151.733 161.427 151.391C161.514 151.048 161.525 150.689 161.471 150.314C161.411 149.738 161.221 149.292 160.889 148.976C160.557 148.661 160.149 148.503 159.66 148.503C158.882 148.503 158.224 148.764 157.675 149.281C157.131 149.797 156.669 150.428 156.294 151.179C155.918 151.924 155.619 152.707 155.391 153.528C155.163 154.349 155.005 155.045 154.918 155.616C154.804 156.307 154.722 156.987 154.679 157.661C154.635 158.335 154.657 159.021 154.744 159.706C154.798 159.934 154.798 160.179 154.744 160.44C154.684 160.87 154.521 161.207 154.249 161.451C153.977 161.696 153.64 161.816 153.237 161.816C152.775 161.816 152.395 161.68 152.095 161.408C151.796 161.136 151.53 160.81 151.296 160.44C150.665 159.434 150.072 158.422 149.529 157.4C148.985 156.383 148.506 155.323 148.109 154.235C147.364 152.168 146.896 150.069 146.706 147.943C146.521 145.817 146.668 143.674 147.158 141.52C147.299 140.917 147.522 140.264 147.826 139.557C148.126 138.856 148.501 138.198 148.947 137.594C149.393 136.99 149.915 136.496 150.518 136.109C151.122 135.723 151.78 135.528 152.503 135.528C153.02 135.528 153.488 135.631 153.906 135.827C154.325 136.028 154.684 136.3 154.983 136.648C155.282 136.99 155.527 137.387 155.717 137.833C155.902 138.279 155.995 138.747 155.995 139.236C156.022 139.726 155.978 140.199 155.864 140.661C155.75 141.123 155.619 141.597 155.478 142.081C155.163 143.087 154.847 144.087 154.532 145.077C154.216 146.067 153.955 147.067 153.754 148.074C153.694 148.449 153.629 148.813 153.558 149.172C153.488 149.531 153.45 149.912 153.45 150.314L153.455 150.309Z" fill="black"/>
<path d="M182.544 144.702C182.544 148.378 182.147 151.875 181.358 155.198C180.57 158.515 179.488 161.598 178.128 164.443C176.763 167.287 175.159 169.859 173.321 172.159C171.483 174.46 169.519 176.417 167.437 178.044C165.354 179.664 163.2 180.915 160.971 181.79C158.746 182.666 156.566 183.106 154.439 183.106C153.607 183.106 152.764 182.981 151.916 182.742C151.068 182.497 150.301 182.138 149.61 181.665C148.92 181.192 148.359 180.599 147.93 179.898C147.5 179.191 147.283 178.37 147.283 177.418C147.283 176.526 147.484 175.738 147.886 175.047C148.289 174.356 148.811 173.78 149.458 173.323C150.105 172.861 150.823 172.518 151.611 172.29C152.4 172.061 153.199 171.947 154.004 171.947C155.211 171.947 156.402 172.1 157.583 172.399C158.763 172.703 159.954 172.85 161.161 172.85C163.227 172.85 165.24 172.382 167.192 171.447C169.144 170.512 170.884 169.092 172.407 167.178C173.93 165.269 175.148 162.876 176.072 160.005C176.991 157.134 177.454 153.757 177.454 149.879C177.454 148.786 177.269 147.889 176.894 147.187C176.518 146.486 176.056 145.904 175.491 145.442C174.93 144.985 174.321 144.582 173.658 144.234C172.994 143.892 172.385 143.522 171.825 143.136C171.265 142.75 170.797 142.287 170.422 141.754C170.047 141.222 169.862 140.525 169.862 139.666C169.862 138.976 170.025 138.35 170.357 137.79C170.689 137.23 171.113 136.751 171.629 136.349C172.146 135.946 172.728 135.636 173.375 135.424C174.022 135.207 174.648 135.104 175.251 135.104C176.633 135.104 177.78 135.386 178.699 135.941C179.618 136.501 180.363 137.241 180.94 138.16C181.516 139.079 181.924 140.107 182.169 141.243C182.413 142.38 182.533 143.533 182.533 144.713L182.544 144.702ZM175.349 126C176.067 126 176.671 126.185 177.16 126.56C177.649 126.935 178.063 127.403 178.411 127.963C178.753 128.523 179.058 129.122 179.314 129.752C179.575 130.383 179.83 130.96 180.091 131.476C180.407 132.14 180.825 132.662 181.342 133.048C181.859 133.434 182.348 133.929 182.805 134.533C182.805 134.794 182.696 134.995 182.484 135.136C182.266 135.283 182.044 135.354 181.815 135.354C181.037 135.354 180.118 135.218 179.058 134.946C177.992 134.674 176.981 134.277 176.018 133.76C175.055 133.244 174.234 132.613 173.56 131.862C172.886 131.117 172.548 130.269 172.548 129.317C172.548 128.458 172.777 127.686 173.239 127.012C173.696 126.337 174.403 126 175.349 126Z" fill="black"/>
<path d="M186.421 151.386C186.421 149.689 186.693 148.019 187.242 146.366C187.786 144.713 188.548 143.168 189.526 141.733C190.505 140.297 191.653 139.014 192.974 137.877C194.296 136.74 195.731 135.859 197.281 135.229C198.663 134.685 200.011 134.407 201.333 134.407H201.55C205.14 134.494 207.696 136.159 209.224 139.405C209.882 140.786 210.251 141.918 210.322 142.809C210.393 143.701 210.431 144.332 210.431 144.707C210.431 145.773 210.317 146.85 210.088 147.938C209.572 150.407 208.696 152.636 207.462 154.616C206.227 156.601 204.574 158.319 202.507 159.788C200.724 161.082 198.788 161.854 196.689 162.115C196.286 162.175 195.884 162.202 195.481 162.202C194.133 162.202 192.751 161.843 191.343 161.125C189.934 160.407 188.787 159.227 187.895 157.59C186.916 155.812 186.432 153.74 186.432 151.386H186.421ZM190.043 161.169C190.07 160.076 190.185 158.999 190.386 157.939C190.587 156.878 190.832 155.812 191.12 154.752C191.577 152.941 192.11 151.141 192.713 149.341C193.317 147.546 194.029 145.8 194.845 144.104C195.666 142.407 196.596 140.781 197.646 139.215C198.695 137.649 199.908 136.208 201.289 134.886C201.779 134.397 202.284 133.945 202.817 133.526C203.35 133.108 203.916 132.743 204.52 132.428C205.096 132.167 205.662 131.977 206.222 131.846C206.782 131.716 207.364 131.71 207.967 131.824C209.001 132.026 209.718 132.51 210.121 133.265C210.523 134.027 210.523 134.897 210.121 135.87C209.98 136.273 209.778 136.626 209.517 136.925C209.256 137.224 208.973 137.534 208.658 137.85C208.256 138.225 207.848 138.573 207.429 138.905C207.01 139.237 206.586 139.557 206.156 139.873C204.607 141.02 203.127 142.293 201.719 143.685C200.31 145.077 199.038 146.567 197.907 148.144C196.77 149.727 195.818 151.413 195.041 153.207C194.263 155.002 193.747 156.894 193.491 158.874C193.404 159.537 193.263 160.299 193.061 161.158C192.86 162.017 192.517 162.697 192.028 163.181C191.626 163.583 191.169 163.698 190.647 163.524C190.244 163.35 190.043 162.991 190.043 162.447C190.016 162.218 190.005 162.001 190.021 161.8C190.038 161.598 190.043 161.381 190.043 161.153V161.169ZM195.432 145.697C195.492 145.436 195.519 145.197 195.519 144.963C195.519 144.533 195.411 144.104 195.199 143.669C194.981 143.239 194.589 142.967 194.013 142.848H193.795C193.48 142.848 193.197 142.951 192.953 143.147C192.708 143.348 192.556 143.68 192.501 144.136C192.474 144.365 192.458 144.582 192.458 144.784C192.458 145.273 192.572 145.784 192.8 146.312C193.029 146.845 193.404 147.155 193.921 147.236H194.095C194.383 147.236 194.649 147.117 194.894 146.872C195.139 146.627 195.318 146.236 195.432 145.686V145.697ZM193.235 150.135V150.439C193.235 151.184 193.632 151.891 194.421 152.549C195.209 153.213 196.264 153.653 197.586 153.887C197.988 153.947 198.374 153.974 198.75 153.974C199.555 153.974 200.348 153.795 201.142 153.436C201.931 153.077 202.399 152.479 202.546 151.647C202.573 151.473 202.589 151.315 202.589 151.173C202.589 150.912 202.518 150.662 202.371 150.418C202.23 150.173 202.034 149.928 201.79 149.683C201.545 149.439 201.306 149.194 201.077 148.949C200.849 148.704 200.718 148.384 200.691 147.981C200.631 147.236 200.229 146.774 199.484 146.6C199.397 146.573 199.31 146.556 199.223 146.556C199.076 146.556 198.88 146.605 198.619 146.709C198.358 146.812 198.113 146.975 197.885 147.204C197.51 147.546 197.162 147.742 196.83 147.785C196.498 147.829 196.167 147.851 195.84 147.851C195.514 147.851 195.193 147.9 194.894 148.003C194.595 148.106 194.285 148.4 193.969 148.884C193.823 149.112 193.681 149.324 193.54 149.509C193.393 149.694 193.295 149.906 193.241 150.135H193.235ZM199.614 143.712C199.669 143.397 199.701 143.109 199.701 142.853C199.701 142.565 199.652 142.249 199.549 141.907C199.446 141.564 199.212 141.363 198.837 141.303H198.576C198.173 141.303 197.771 141.51 197.368 141.929C196.966 142.347 196.705 142.886 196.591 143.544C196.564 143.745 196.547 143.946 196.547 144.147C196.547 144.49 196.623 144.865 196.786 145.268C196.944 145.67 197.254 145.915 197.711 146.002H197.928C198.271 146.002 198.608 145.8 198.94 145.398C199.272 144.996 199.495 144.436 199.609 143.718L199.614 143.712ZM203.753 145.219C203.807 144.99 203.84 144.773 203.84 144.571C203.84 144.256 203.769 143.913 203.622 143.538C203.475 143.163 203.22 142.951 202.845 142.891C202.758 142.864 202.671 142.848 202.584 142.848C202.208 142.848 201.86 143.043 201.529 143.429C201.197 143.816 200.974 144.343 200.86 145.001C200.833 145.202 200.816 145.387 200.816 145.561C200.816 146.366 201.159 146.839 201.849 146.986C201.936 147.013 202.034 147.03 202.149 147.03C202.491 147.03 202.817 146.888 203.117 146.6C203.416 146.312 203.628 145.855 203.742 145.219H203.753ZM205.303 146.856H205.042C204.612 146.856 204.161 147.062 203.682 147.481C203.209 147.9 202.915 148.422 202.801 149.053V149.27C202.801 149.498 202.888 149.738 203.062 149.982C203.236 150.227 203.437 150.363 203.666 150.39H203.927C204.416 150.39 204.895 150.189 205.368 149.787C205.841 149.384 206.124 148.884 206.211 148.28V148.063C206.211 147.802 206.124 147.552 205.95 147.307C205.776 147.062 205.564 146.91 205.303 146.856Z" fill="black"/>
<path d="M223.999 141.129C224.429 140.585 224.913 140.058 225.44 139.557C225.973 139.057 226.539 138.611 227.142 138.22C227.746 137.828 228.382 137.523 229.062 137.295C229.736 137.067 230.433 136.952 231.15 136.952C232.532 136.952 233.734 137.371 234.772 138.203C235.806 139.035 236.523 140.188 236.926 141.651C237.328 143.114 237.361 144.49 237.035 145.768C236.703 147.046 236.077 148.258 235.158 149.411C234.756 149.901 234.283 150.314 233.734 150.662C233.19 151.005 232.586 151.179 231.923 151.179C231.319 151.179 230.824 151.059 230.438 150.814C230.052 150.57 229.747 150.249 229.535 149.846C229.318 149.444 229.171 148.998 229.084 148.509C228.997 148.019 228.953 147.53 228.953 147.046C228.953 146.703 228.97 146.35 228.997 145.991C229.024 145.632 229.013 145.267 228.953 144.892C228.807 143.799 228.306 143.255 227.447 143.255C227.072 143.255 226.713 143.342 226.37 143.516C226.028 143.69 225.696 143.902 225.38 144.163C225.065 144.425 224.777 144.707 224.521 145.023C224.26 145.338 224.048 145.643 223.874 145.925C222.64 147.823 221.949 149.754 221.808 151.723C221.661 153.691 221.982 155.709 222.754 157.775C222.895 158.151 223.048 158.509 223.205 158.852C223.363 159.195 223.515 159.554 223.657 159.929C223.885 160.445 223.977 160.848 223.939 161.136C223.896 161.424 223.733 161.669 223.444 161.87C223.216 162.012 222.971 162.088 222.71 162.088C222.281 162.088 221.797 161.881 221.269 161.462C220.736 161.044 220.22 160.549 219.719 159.978C219.219 159.401 218.773 158.819 218.382 158.232C217.995 157.645 217.713 157.177 217.544 156.829C216.195 154.186 215.304 151.358 214.874 148.34C214.7 147.106 214.629 145.882 214.656 144.675C214.684 143.467 214.83 142.26 215.086 141.053C215.227 140.449 215.45 139.802 215.755 139.111C216.059 138.421 216.424 137.784 216.853 137.192C217.283 136.604 217.794 136.115 218.382 135.729C218.969 135.343 219.621 135.147 220.345 135.147C220.948 135.147 221.465 135.299 221.895 135.598C222.324 135.897 222.683 136.284 222.971 136.74C223.26 137.203 223.472 137.703 223.619 138.247C223.76 138.791 223.847 139.324 223.88 139.84C223.907 140.041 223.918 140.243 223.901 140.444C223.885 140.645 223.923 140.873 224.01 141.134L223.999 141.129Z" fill="black"/>
<path d="M250.157 143.109C250.358 142.907 250.521 142.744 250.652 142.614C250.782 142.483 250.918 142.363 251.06 142.249C251.864 141.472 252.74 140.841 253.686 140.351C254.633 139.862 255.671 139.617 256.791 139.617C257.482 139.617 258.173 139.721 258.858 139.916C259.549 140.118 260.185 140.433 260.778 140.863C261.365 141.292 261.876 141.863 262.306 142.565C262.735 143.266 263.04 144.125 263.209 145.126C263.497 146.823 263.497 148.465 263.209 150.059C262.92 151.652 262.518 153.256 262.001 154.866C261.827 155.442 261.577 156.117 261.245 156.889C260.914 157.667 260.511 158.395 260.038 159.086C259.565 159.777 259.027 160.364 258.423 160.853C257.819 161.343 257.145 161.587 256.4 161.587C255.736 161.587 255.133 161.359 254.589 160.897C254.045 160.44 253.67 159.793 253.469 158.955C253.322 158.297 253.273 157.65 253.316 157.014C253.36 156.383 253.452 155.736 253.599 155.073C253.741 154.328 253.936 153.588 254.181 152.854C254.426 152.12 254.66 151.38 254.894 150.635C255.296 149.455 255.584 148.28 255.753 147.1C255.807 146.671 255.845 146.241 255.862 145.806C255.878 145.376 255.813 144.958 255.666 144.555C255.323 143.348 254.529 142.831 253.295 143.005C252.376 143.092 251.511 143.495 250.712 144.212C249.907 144.93 249.319 145.692 248.944 146.497C248.455 147.644 248.063 148.808 247.759 149.988C247.46 151.168 247.318 152.402 247.351 153.691C247.378 154.61 247.503 155.497 247.715 156.34C247.933 157.188 248.237 158.025 248.64 158.863C248.781 159.178 248.922 159.472 249.047 159.744C249.178 160.016 249.298 160.31 249.412 160.625C249.586 161.142 249.526 161.566 249.238 161.897C248.95 162.229 248.536 162.349 247.987 162.262C247.612 162.175 247.209 161.99 246.78 161.702C246.35 161.413 245.937 161.076 245.551 160.69C245.165 160.304 244.817 159.902 244.517 159.483C244.218 159.064 243.979 158.7 243.805 158.384C240.961 152.897 240.227 147.165 241.608 141.189C241.749 140.585 241.972 139.927 242.277 139.204C242.576 138.486 242.957 137.823 243.419 137.219C243.876 136.615 244.403 136.104 244.991 135.691C245.578 135.272 246.23 135.065 246.954 135.065C247.53 135.065 248.058 135.218 248.547 135.517C249.037 135.816 249.45 136.256 249.798 136.833C250.113 137.377 250.32 137.948 250.423 138.535C250.521 139.122 250.559 139.737 250.532 140.368C250.505 140.77 250.445 141.194 250.358 141.64C250.271 142.086 250.2 142.565 250.141 143.081L250.157 143.109Z" fill="black"/>
<path d="M282.65 162.675H282.003C279.904 162.675 277.881 162.273 275.928 161.468C273.976 160.663 272.122 159.445 270.371 157.803C269.479 156.97 268.755 156.041 268.195 155.024C267.635 154.007 267.271 153.05 267.097 152.158C266.923 151.266 266.836 150.477 266.836 149.787C266.836 149.357 266.879 148.748 266.966 147.954C267.053 147.165 267.342 146.208 267.826 145.088C268.456 143.593 269.288 142.157 270.327 140.781C271.36 139.4 272.546 138.182 273.884 137.116C275.222 136.055 276.668 135.196 278.234 134.549C279.8 133.902 281.432 133.581 283.123 133.581C283.466 133.581 283.814 133.597 284.156 133.624C284.499 133.652 284.847 133.695 285.19 133.755C286.799 134.016 288.126 134.56 289.176 135.392C290.225 136.224 290.987 137.181 291.46 138.258C291.933 139.334 292.172 140.449 292.172 141.597C292.172 141.711 292.156 142.13 292.129 142.847C292.102 143.565 291.786 144.512 291.183 145.692C290.264 147.53 289.035 148.944 287.496 149.939C285.957 150.929 284.156 151.511 282.085 151.685C281.622 151.712 281.182 151.728 280.747 151.728C280.002 151.728 279.142 151.674 278.185 151.554C277.223 151.44 276.151 151.222 274.977 150.907C274.748 150.847 274.504 150.82 274.243 150.82C273.84 150.82 273.389 150.95 272.883 151.206C272.377 151.467 271.986 151.826 271.698 152.283C271.382 152.799 271.224 153.289 271.224 153.746C271.224 154.322 271.453 154.882 271.915 155.426C273.008 156.693 274.428 157.367 276.184 157.449C276.358 157.476 276.543 157.493 276.744 157.493C277.147 157.493 277.603 157.433 278.126 157.319C278.642 157.204 279.186 157.074 279.762 156.932C280.855 156.644 281.905 156.28 282.906 155.834C283.912 155.388 284.945 154.996 286.011 154.648C286.756 154.387 287.419 154.202 287.996 154.088C288.572 153.974 289.056 153.914 289.459 153.914C289.801 153.914 290.16 153.941 290.535 154.001C290.595 154.001 290.633 154.018 290.666 154.045H290.965C290.992 154.072 291.036 154.088 291.096 154.088C292.042 154.349 292.645 154.73 292.907 155.23C293.168 155.736 293.293 156.171 293.293 156.546C293.293 156.976 293.178 157.438 292.95 157.928C292.488 158.934 291.879 159.744 291.117 160.364C290.356 160.984 289.513 161.462 288.594 161.805C287.675 162.148 286.707 162.381 285.685 162.496C284.662 162.61 283.651 162.67 282.645 162.67L282.65 162.675ZM279.588 140.438C279.703 140.123 279.762 139.818 279.762 139.536C279.762 139.307 279.703 139.019 279.588 138.676C279.474 138.334 279.186 138.089 278.729 137.942C278.615 137.915 278.512 137.899 278.425 137.899C278.223 137.899 278.022 137.964 277.821 138.095C277.62 138.225 277.462 138.475 277.348 138.85C277.261 139.166 277.217 139.47 277.217 139.753C277.217 140.036 277.277 140.379 277.391 140.765C277.506 141.151 277.767 141.417 278.169 141.564C278.256 141.591 278.343 141.608 278.43 141.608C278.631 141.608 278.838 141.521 279.055 141.347C279.273 141.173 279.452 140.873 279.594 140.444L279.588 140.438ZM277.304 143.843C277.245 144.017 277.217 144.185 277.217 144.359C277.217 144.876 277.489 145.436 278.039 146.04C278.582 146.643 279.387 147.106 280.453 147.421C280.741 147.508 281.013 147.568 281.274 147.595C281.535 147.622 281.775 147.639 282.008 147.639C282.699 147.639 283.292 147.508 283.798 147.252C284.298 146.991 284.624 146.622 284.766 146.132C284.82 145.931 284.853 145.746 284.853 145.572C284.853 145.398 284.809 145.219 284.722 145.034C284.635 144.849 284.505 144.648 284.336 144.43C284.162 144.212 284.004 144 283.863 143.783C283.716 143.565 283.645 143.331 283.645 143.07V142.728C283.645 142.184 283.373 141.825 282.824 141.651C282.737 141.624 282.639 141.608 282.52 141.608C282.433 141.608 282.291 141.629 282.09 141.673C281.889 141.716 281.671 141.809 281.443 141.956C281.068 142.217 280.698 142.342 280.323 142.342C279.92 142.342 279.621 142.325 279.42 142.298C279.219 142.271 279.104 142.255 279.077 142.255C278.762 142.255 278.414 142.472 278.044 142.902C277.897 143.076 277.756 143.223 277.614 143.353C277.467 143.484 277.37 143.647 277.315 143.848L277.304 143.843ZM283.254 139.275C283.368 138.845 283.428 138.486 283.428 138.198C283.428 138.084 283.411 137.915 283.384 137.703C283.357 137.485 283.183 137.322 282.868 137.208C282.753 137.181 282.639 137.165 282.525 137.165C282.237 137.165 281.921 137.311 281.579 137.594C281.236 137.882 280.975 138.285 280.801 138.801C280.714 139.09 280.671 139.362 280.671 139.623C280.671 139.797 280.709 140.025 280.779 140.313C280.85 140.602 281.073 140.819 281.448 140.96C281.535 140.988 281.622 141.004 281.709 141.004C281.97 141.004 282.248 140.863 282.552 140.574C282.851 140.286 283.091 139.856 283.265 139.28L283.254 139.275ZM286.484 140.999C286.571 140.683 286.615 140.395 286.615 140.139C286.615 139.998 286.587 139.786 286.528 139.514C286.468 139.242 286.283 139.063 285.967 138.975C285.853 138.921 285.739 138.888 285.625 138.888C285.364 138.888 285.092 139.019 284.804 139.275C284.515 139.536 284.287 139.938 284.113 140.482C284.026 140.743 283.982 140.971 283.982 141.173C283.982 141.689 284.227 142.032 284.717 142.206C284.858 142.266 285.005 142.293 285.146 142.293C285.347 142.293 285.576 142.2 285.837 142.01C286.098 141.825 286.31 141.488 286.484 140.999ZM287.561 142.505C287.447 142.451 287.316 142.418 287.175 142.418C286.886 142.418 286.533 142.559 286.12 142.847C285.701 143.136 285.424 143.522 285.277 144.011C285.25 144.125 285.233 144.229 285.233 144.31C285.233 144.452 285.282 144.626 285.386 144.827C285.483 145.028 285.636 145.159 285.837 145.213C285.978 145.273 286.125 145.3 286.267 145.3C286.582 145.3 286.941 145.164 287.343 144.892C287.746 144.62 288.018 144.24 288.164 143.75C288.192 143.636 288.208 143.522 288.208 143.408C288.208 143.266 288.159 143.092 288.056 142.891C287.952 142.69 287.789 142.559 287.561 142.505Z" fill="black"/>
<path d="M297.736 146.948C297.42 147.008 297.116 147.057 296.833 147.1C296.545 147.144 296.246 147.182 295.93 147.209C295.414 147.296 294.968 147.236 294.592 147.035C294.19 146.806 293.967 146.535 293.923 146.214C293.88 145.898 294.016 145.583 294.331 145.267C294.674 144.925 295.033 144.691 295.408 144.577C295.724 144.435 296.055 144.294 296.398 144.169C296.74 144.038 297.088 143.93 297.431 143.848C297.747 143.761 297.986 143.631 298.144 143.462C298.301 143.288 298.41 143.032 298.464 142.684C298.606 142.026 298.785 141.336 299.003 140.618C299.22 139.9 299.498 139.209 299.846 138.551C300.188 137.893 300.602 137.279 301.075 136.719C301.548 136.158 302.086 135.707 302.69 135.359C303.092 135.131 303.5 134.951 303.919 134.821C304.338 134.69 304.789 134.685 305.278 134.799C305.996 135 306.594 135.397 307.068 135.984C307.541 136.572 307.834 137.284 307.949 138.116C308.008 138.693 308.008 139.253 307.949 139.797C307.889 140.34 307.791 140.89 307.649 141.434C307.535 141.836 307.497 142.075 307.541 142.146C307.584 142.217 307.807 142.309 308.21 142.429C308.699 142.57 309.134 142.771 309.526 143.032C309.917 143.293 310.265 143.62 310.581 144.022C311.124 144.74 311.271 145.431 311.01 146.089C310.749 146.752 310.178 147.165 309.286 147.339C308.797 147.454 308.329 147.475 307.883 147.405C307.437 147.334 306.986 147.242 306.524 147.122C306.034 147.008 305.741 146.981 305.643 147.035C305.539 147.095 305.404 147.35 305.235 147.813C304.571 149.678 304.191 151.554 304.093 153.436C303.99 155.317 304.245 157.204 304.849 159.102C304.936 159.39 305.007 159.668 305.066 159.94C305.121 160.212 305.153 160.494 305.153 160.783C305.153 161.386 304.979 161.897 304.637 162.311C304.294 162.73 303.805 162.936 303.174 162.936C302.684 162.936 302.195 162.691 301.711 162.202C301.483 161.974 301.281 161.734 301.107 161.49C300.933 161.245 300.765 160.995 300.591 160.734C299.47 158.868 298.666 156.943 298.176 154.958C297.687 152.973 297.545 150.896 297.747 148.71C297.774 148.422 297.795 148.133 297.812 147.851C297.828 147.562 297.806 147.263 297.747 146.948H297.736Z" fill="black"/>
<path d="M321.136 157.547C321.049 158.526 320.804 159.429 320.402 160.261C320 161.093 319.412 161.827 318.635 162.458C318.091 162.915 317.514 163.148 316.911 163.148C316.508 163.148 316.149 163.045 315.834 162.849C315.345 162.621 314.991 162.289 314.779 161.859C314.561 161.43 314.469 160.957 314.496 160.435C314.556 159.488 314.757 158.597 315.1 157.765C315.442 156.932 316.019 156.198 316.824 155.568C317.052 155.339 317.368 155.143 317.77 154.986C318.172 154.828 318.531 154.746 318.847 154.746C319.276 154.746 319.63 154.833 319.902 155.007C320.174 155.181 320.397 155.393 320.571 155.655C320.745 155.916 320.875 156.209 320.957 156.536C321.044 156.867 321.098 157.204 321.131 157.547H321.136Z" fill="black"/>
<path d="M342.122 148.927C342.149 148.411 342.122 147.965 342.035 147.59C341.948 147.214 341.877 146.845 341.818 146.469C341.79 146.268 341.758 146.072 341.731 145.887C341.703 145.703 341.66 145.523 341.6 145.349L341.17 143.065C341.111 142.864 341.078 142.679 341.062 142.505C341.045 142.331 341.013 142.146 340.953 141.945C340.839 141.254 340.79 140.574 340.801 139.9C340.817 139.226 340.893 138.54 341.04 137.855C341.154 137.339 341.339 136.849 341.6 136.392C341.861 135.936 342.177 135.517 342.546 135.142C342.922 134.766 343.346 134.473 343.819 134.261C344.292 134.043 344.803 133.94 345.347 133.94C346.44 133.94 347.359 134.304 348.104 135.038C348.849 135.772 349.426 136.599 349.828 137.518C350.258 138.464 350.546 139.443 350.687 140.449C350.829 141.455 350.889 142.472 350.861 143.511C350.802 145.577 350.519 147.568 350.002 149.482C349.485 151.391 348.779 153.267 347.892 155.105C347 156.916 345.847 158.417 344.423 159.608C343.003 160.799 341.372 161.74 339.534 162.43C338.642 162.773 337.744 163.05 336.842 163.252C335.939 163.453 335.009 163.551 334.063 163.551C332.681 163.578 331.398 163.328 330.207 162.795C329.016 162.262 327.999 161.528 327.167 160.598C326.335 159.662 325.71 158.58 325.291 157.346C324.872 156.111 324.753 154.801 324.927 153.425C325.068 152.163 325.378 150.978 325.851 149.868C326.324 148.764 326.944 147.785 327.706 146.937C328.467 146.089 329.37 145.393 330.419 144.849C331.469 144.305 332.654 143.957 333.976 143.815C334.579 143.761 335.167 143.794 335.743 143.924C336.32 144.055 336.88 144.245 337.424 144.506C339.088 145.251 340.409 146.371 341.388 147.867C341.502 148.014 341.611 148.161 341.709 148.318C341.807 148.476 341.948 148.683 342.117 148.944L342.122 148.927ZM331.692 152.549C331.752 151.973 331.665 151.478 331.431 151.065C331.202 150.646 330.854 150.412 330.397 150.352C330.082 150.292 329.832 150.374 329.642 150.591C329.457 150.809 329.332 151.103 329.277 151.472C329.217 152.076 329.321 152.614 329.576 153.088C329.837 153.561 330.164 153.827 330.566 153.887C330.854 153.947 331.099 153.843 331.3 153.588C331.501 153.327 331.632 152.984 331.686 152.555L331.692 152.549ZM330.185 156.171C330.126 156.862 330.457 157.465 331.175 157.982C331.893 158.499 332.768 158.814 333.802 158.928C334.835 159.042 335.705 158.901 336.407 158.499C337.108 158.096 337.505 157.563 337.592 156.905C337.647 156.503 337.598 156.193 337.44 155.981C337.282 155.763 337.103 155.573 336.902 155.399C336.7 155.225 336.505 155.045 336.32 154.86C336.135 154.676 336.01 154.42 335.955 154.105C335.868 153.528 335.526 153.202 334.922 153.115C334.748 153.088 334.547 153.115 334.318 153.202C334.09 153.289 333.889 153.419 333.715 153.588C333.427 153.903 333.149 154.088 332.877 154.148C332.605 154.208 332.339 154.24 332.078 154.257C331.817 154.273 331.578 154.322 331.344 154.409C331.115 154.496 330.898 154.741 330.697 155.143C330.582 155.344 330.474 155.524 330.376 155.682C330.272 155.839 330.213 156.002 330.18 156.176L330.185 156.171ZM334.927 150.782C334.982 150.238 334.949 149.797 334.819 149.466C334.688 149.134 334.465 148.944 334.15 148.884C333.747 148.824 333.388 149.009 333.073 149.422C332.758 149.841 332.573 150.292 332.513 150.782C332.453 151.271 332.518 151.701 332.709 152.076C332.894 152.451 333.16 152.663 333.508 152.723C333.883 152.783 334.199 152.614 334.454 152.228C334.715 151.842 334.873 151.358 334.927 150.787V150.782ZM338.288 151.772C338.348 151.282 338.288 150.874 338.114 150.542C337.94 150.211 337.695 150.02 337.38 149.961C337.037 149.906 336.717 150.053 336.434 150.412C336.146 150.771 335.972 151.211 335.917 151.728C335.83 152.674 336.146 153.191 336.863 153.278C337.206 153.338 337.516 153.218 337.788 152.935C338.06 152.647 338.223 152.261 338.283 151.772H338.288ZM339.583 153.022C339.381 152.995 339.175 153.028 338.957 153.131C338.74 153.234 338.549 153.37 338.375 153.539C338.201 153.708 338.06 153.903 337.946 154.121C337.831 154.338 337.761 154.572 337.728 154.833C337.701 155.094 337.766 155.323 337.924 155.524C338.082 155.725 338.261 155.839 338.462 155.866C338.892 155.926 339.3 155.758 339.691 155.372C340.077 154.986 340.3 154.545 340.36 154.056C340.387 153.767 340.322 153.534 340.164 153.343C340.007 153.158 339.811 153.05 339.583 153.022Z" fill="black"/>
<path d="M364.571 150.309C365.229 150.194 365.854 150.113 366.447 150.069C367.035 150.026 367.616 150.064 368.193 150.178C368.971 150.32 369.759 150.581 370.564 150.956C371.369 151.331 372.114 151.815 372.804 152.419C373.495 153.022 374.088 153.746 374.594 154.594C375.094 155.442 375.431 156.399 375.605 157.46C375.747 158.292 375.665 159.048 375.344 159.722C375.029 160.397 374.523 160.935 373.838 161.337C373.294 161.68 372.701 161.854 372.07 161.854C371.554 161.854 371.07 161.745 370.629 161.533C370.183 161.316 369.775 161.044 369.4 160.712C369.025 160.38 368.688 160.01 368.389 159.592C368.09 159.173 367.807 158.765 367.546 158.363C367.459 158.221 367.383 158.091 367.306 157.977C367.236 157.862 367.154 157.748 367.067 157.634L366.121 156.084C365.604 155.252 365.044 154.567 364.441 154.039C363.837 153.506 363.021 153.158 361.982 152.984C361.895 153.561 361.901 154.121 362.004 154.665C362.102 155.208 362.254 155.758 362.456 156.302C362.597 156.704 362.766 157.101 362.95 157.487C363.135 157.873 363.315 158.27 363.489 158.673C363.717 159.135 363.875 159.608 363.962 160.092C364.103 160.636 363.962 161.082 363.532 161.43C363.386 161.544 363.217 161.604 363.016 161.604C362.842 161.604 362.63 161.533 362.369 161.386C362.108 161.239 361.847 161.076 361.569 160.891C361.297 160.706 361.047 160.511 360.813 160.31C360.585 160.108 360.411 159.951 360.297 159.836C357.996 157.308 356.403 154.599 355.511 151.712C354.619 148.824 354.461 145.686 355.038 142.298C355.179 141.553 355.402 140.77 355.707 139.949C356.006 139.128 356.403 138.35 356.892 137.6C357.382 136.855 357.947 136.207 358.594 135.658C359.242 135.114 359.965 134.755 360.77 134.581C361.716 134.38 362.543 134.505 363.25 134.946C363.951 135.392 364.435 136.071 364.691 136.991C364.865 137.567 364.919 138.116 364.865 138.649C364.805 139.182 364.707 139.721 364.566 140.264L362.885 146.083C362.825 146.344 362.76 146.6 362.689 146.861C362.619 147.122 362.581 147.394 362.581 147.682C362.809 147.595 362.961 147.475 363.032 147.318C363.103 147.16 363.184 147.008 363.271 146.866C363.761 146.121 364.31 145.36 364.93 144.582C365.55 143.805 366.224 143.098 366.953 142.45C367.682 141.803 368.476 141.238 369.324 140.748C370.172 140.259 371.053 139.927 371.972 139.759C372.891 139.617 373.734 139.677 374.496 139.954C375.257 140.226 375.839 140.694 376.241 141.357C376.671 142.102 376.845 142.907 376.758 143.772C376.671 144.631 376.339 145.436 375.768 146.187C375.366 146.676 374.915 147.062 374.409 147.35C373.908 147.639 373.365 147.883 372.794 148.084C371.989 148.345 371.168 148.536 370.336 148.666C369.503 148.797 368.671 148.949 367.834 149.118C367.459 149.205 367.089 149.297 366.714 149.4C366.338 149.504 365.969 149.623 365.593 149.765C365.452 149.825 365.3 149.879 365.142 149.939C364.984 149.999 364.789 150.124 364.56 150.325L364.571 150.309Z" fill="black"/>
<g opacity="0.8">
<path d="M188.26 110.722C216.129 110.722 238.721 108.496 238.721 105.751C238.721 103.006 216.129 100.781 188.26 100.781C160.392 100.781 137.799 103.006 137.799 105.751C137.799 108.496 160.392 110.722 188.26 110.722Z" fill="black"/>
</g>
<path d="M186.874 99.7473C214.418 99.7473 236.747 77.4181 236.747 49.8737C236.747 22.3292 214.418 0 186.874 0C159.329 0 137 22.3292 137 49.8737C137 77.4181 159.329 99.7473 186.874 99.7473Z" fill="#AF4700"/>
<path d="M210.372 57.5197C212.618 61.3971 212.672 65.8564 211.487 70.2016C215.326 68.8475 218.268 71.9472 219.432 75.3461C221.015 79.9686 220.634 87.6962 215.674 97.9799C215.821 98.0614 215.963 98.143 216.098 98.23C219.851 100.547 219.851 104.691 216.098 107.013C213.249 108.769 209.132 109.014 205.935 107.915C202.677 109.041 198.566 108.742 195.771 107.013C194.732 106.371 193.981 105.588 193.519 104.745C189.218 105.805 184.524 105.811 180.223 104.745C179.76 105.588 179.01 106.371 177.971 107.013C175.171 108.742 171.059 109.041 167.807 107.915C164.61 109.019 160.493 108.775 157.643 107.013C153.891 104.696 153.891 100.552 157.643 98.23C157.785 98.143 157.926 98.0614 158.068 97.9799C153.113 87.6962 152.727 79.974 154.31 75.3461C155.474 71.9472 158.421 68.8475 162.255 70.2016C161.069 65.8564 161.129 61.3971 163.37 57.5197C161.994 56.568 160.765 55.4804 159.71 54.3166C160.857 54.0882 162.07 53.8924 163.196 53.5933C158.557 52.2936 156.061 49.6669 154.734 47.024C155.479 47.1164 157.491 47.4482 159.656 47.3013C156.931 45.6753 155.125 43.5272 154.527 41.6511C157.23 41.3846 159.248 40.732 160.732 39.2582C159.677 39.8293 158.47 40.3731 157.078 40.9006C157.023 36.6316 156.534 35.7778 153.396 32.6726C141.187 20.5889 159.634 12.5785 169.819 10.5174C179.82 7.17291 193.916 7.17291 203.917 10.5174C214.103 12.573 232.549 20.5889 220.34 32.6726C217.208 35.7778 216.713 36.6316 216.659 40.9006C215.266 40.3785 214.059 39.8293 213.004 39.2582C214.483 40.7266 216.501 41.3846 219.209 41.6511C218.611 43.5272 216.805 45.6808 214.081 47.3013C216.24 47.4482 218.252 47.111 219.002 47.024C217.676 49.6615 215.185 52.2936 210.541 53.5933C211.666 53.8924 212.879 54.0882 214.027 54.3166C212.972 55.4749 211.743 56.5626 210.372 57.5143V57.5197Z" fill="black"/>
<path d="M201.818 99.1599C200.094 99.1599 198.37 99.5569 197.087 100.345C194.993 101.64 194.922 103.413 196.88 104.74L197.592 102.097L198.517 105.539C199.218 105.778 199.98 105.936 200.763 106.012L201.818 102.097L202.873 106.012C203.656 105.936 204.417 105.778 205.119 105.539L206.043 102.097L206.756 104.74C208.713 103.418 208.643 101.64 206.549 100.345C205.266 99.5515 203.542 99.1599 201.818 99.1599Z" fill="#F0BA8E"/>
<path d="M207.805 78.4133C206.179 81.0237 204.276 83.373 202.373 85.2491C202.373 85.2383 202.063 81.2466 202.03 79.4248C201.16 82.7802 199.735 85.9615 197.522 88.4522L197.44 97.4144C200.279 96.3485 203.835 96.4029 206.603 97.5721C207.539 90.3991 207.767 83.0195 207.805 78.4133Z" fill="#F0BA8E"/>
<path d="M209.121 99.1981C211.193 101.221 211.193 103.995 209.121 106.023C210.046 106.105 211.003 106.067 211.911 105.909L212.846 102.434L213.651 105.436C214.054 105.278 214.434 105.093 214.782 104.876C216.947 103.538 216.947 101.683 214.782 100.351C213.205 99.3776 211.063 99.0349 209.11 99.2035L209.121 99.1981Z" fill="#F0BA8E"/>
<path d="M213.341 97.0609C218.051 87.3755 218.48 80.2841 217.067 76.1456C215.919 72.7902 213.004 70.7183 210.291 74.1335C210.334 76.3359 210.443 86.5597 209.236 96.6802C210.6 96.5986 212.014 96.7183 213.341 97.0609Z" fill="#F0BA8E"/>
<path d="M194.813 58.0417C199.588 59.0423 203.868 57.7589 208.273 55.4694C206.68 55.0887 204.434 53.7618 203.476 52.908C206.837 52.7666 211.835 50.6457 213.292 49.7104C211.666 49.4711 209.611 49.2318 207.484 47.9919C210.122 47.4318 213.956 44.5278 214.973 43.4836C210.165 41.7434 208.425 36.1094 208.257 35.5221C203.64 29.7957 207.495 22.8566 203.128 16.6733C210.503 20.6051 203.406 32.0036 214.385 37.3113C214.973 34.4943 216.805 32.6779 218.584 30.916C228.818 20.7846 211.362 14.5633 203.379 12.9699L203.226 12.9264C193.715 9.71789 180.016 9.71789 170.505 12.9264L170.352 12.9699C162.375 14.5633 144.918 20.7846 155.147 30.916C156.926 32.6779 158.764 34.4943 159.346 37.3113C170.325 32.0036 163.228 20.6106 170.603 16.6733C166.236 22.8566 170.091 29.7903 165.474 35.5221C165.306 36.1094 163.566 41.7434 158.758 43.4836C159.775 44.5278 163.609 47.4318 166.247 47.9919C164.12 49.2318 162.059 49.4711 160.439 49.7104C161.891 50.6457 166.894 52.7666 170.255 52.908C169.297 53.7618 167.051 55.0887 165.458 55.4694C169.863 57.7589 174.143 59.0423 178.918 58.0417C181.517 62.5934 192.198 62.5934 194.797 58.0417H194.813Z" fill="#F0BA8E"/>
<path d="M165.529 58.8303C164.463 60.9023 161.559 68.5103 169.238 79.0332C169.455 74.7207 170.739 71.5067 172.147 70.2342C172.147 70.2614 172.729 80.9203 178.243 86.9512C177.873 84.0527 177.64 81.2194 178.173 78.7504C178.173 78.7667 181.691 85.7004 186.874 90.6818C192.056 85.695 195.575 78.7667 195.575 78.7504C196.108 81.2194 195.874 84.0527 195.504 86.9512C201.018 80.9203 201.6 70.2614 201.6 70.2342C203.009 71.5067 204.292 74.7153 204.51 79.0332C212.188 68.5103 209.279 60.9023 208.219 58.8303C204.711 60.6847 200.496 61.6201 195.945 60.8153C192.083 64.8667 181.664 64.8667 177.803 60.8153C173.251 61.6201 169.036 60.6847 165.529 58.8303Z" fill="#F0BA8E"/>
<path d="M167.144 97.5721C169.912 96.4029 173.469 96.3485 176.307 97.4144L176.226 88.4522C174.012 85.9615 172.588 82.7802 171.717 79.4248C171.685 81.2466 171.375 85.2383 171.375 85.2491C169.471 83.373 167.568 81.0237 165.942 78.4133C165.98 83.0195 166.214 90.3991 167.144 97.5775V97.5721Z" fill="#F0BA8E"/>
<path d="M164.512 96.6803C163.305 86.5598 163.419 76.336 163.457 74.1335C160.743 70.7238 157.828 72.7903 156.681 76.1456C155.261 80.2841 155.697 87.3809 160.406 97.0609C161.733 96.7129 163.147 96.5932 164.512 96.6803Z" fill="#F0BA8E"/>
<path d="M192.975 102.292C193.073 101.053 193.72 99.8289 194.928 98.8337L195.004 90.72C194.253 91.2529 193.438 91.7206 192.551 92.1121C192.551 92.1121 192.959 89.79 192.839 87.9519C191.638 89.8335 189.174 92.1502 186.879 94.0372C184.584 92.1502 182.121 89.8335 180.919 87.9519C180.799 89.79 181.207 92.1067 181.207 92.1121C180.321 91.7206 179.51 91.2529 178.754 90.72L178.831 98.8337C180.038 99.8289 180.685 101.053 180.783 102.292C184.709 103.266 189.06 103.271 192.986 102.292H192.975Z" fill="#F0BA8E"/>
<path d="M198.479 28.3872C200.589 28.3872 202.296 30.0948 202.296 32.2048C202.296 34.3148 200.589 36.0224 198.479 36.0224C196.369 36.0224 194.661 34.3148 194.661 32.2048C194.661 30.0948 196.369 28.3872 198.479 28.3872Z" fill="black"/>
<path d="M194.9 24.8742C194.9 24.8742 198.566 22.9653 201.339 25.7008C201.339 25.7008 198.566 24.053 195.096 25.8748L194.9 24.8796V24.8742Z" fill="black"/>
<path d="M175.269 28.3872C173.159 28.3872 171.451 30.0948 171.451 32.2048C171.451 34.3148 173.159 36.0224 175.269 36.0224C177.379 36.0224 179.086 34.3148 179.086 32.2048C179.086 30.0948 177.379 28.3872 175.269 28.3872Z" fill="black"/>
<path d="M178.847 24.8742C178.847 24.8742 175.182 22.9653 172.408 25.7008C172.408 25.7008 175.182 24.053 178.651 25.8748L178.847 24.8796V24.8742Z" fill="black"/>
<path d="M192.062 40.0088C192.062 41.3847 190.305 42.5322 187.961 42.8095V45.4362C196.934 52.0273 201.807 37.094 205.924 44.6531C203.819 42.7443 201.024 46.8066 196.951 48.8296C199.931 62.2728 173.806 62.2728 176.786 48.8296C172.718 46.8011 169.917 42.7388 167.813 44.6531C171.93 37.094 176.802 52.0273 185.775 45.4362V42.8095C183.431 42.5322 181.675 41.3847 181.675 40.0088C181.675 36.2565 192.051 36.2565 192.051 40.0088H192.062Z" fill="black"/>
<path d="M210.285 74.1335C218.584 73.1763 217.05 86.8806 217.05 86.8806C218.1 82.269 217.92 78.6635 217.061 76.1456C215.914 72.7902 212.999 70.7183 210.285 74.1335Z" fill="#FFE7D4"/>
<path d="M214.706 94.0372C210.535 91.3942 210.117 85.4231 210.117 85.4231C209.964 88.8818 209.698 92.7918 209.23 96.6802C210.595 96.5986 212.009 96.7182 213.336 97.0608C213.842 96.0221 214.298 95.0161 214.706 94.0372Z" fill="#BF8F67"/>
<path d="M205.924 44.653C203.819 42.7442 201.024 46.8066 196.951 48.8296C198.441 55.5512 192.654 58.912 186.868 58.912C181.082 58.912 175.296 55.5512 176.786 48.8296C172.718 46.8011 169.917 42.7388 167.813 44.653C171.93 37.094 176.802 52.0272 185.775 45.4361V42.8095C183.431 42.5322 181.675 41.3847 181.675 40.0088C181.675 38.1327 184.269 37.1918 186.863 37.1918C189.457 37.1918 192.051 38.1327 192.051 40.0088C192.051 41.3847 190.294 42.5322 187.95 42.8095V45.4361C196.923 52.0272 201.796 37.094 205.913 44.653H205.924ZM186.868 61.4571C190.186 61.4571 193.508 60.3205 194.808 58.0419C199.583 59.0425 203.863 57.7591 208.268 55.4696C206.674 55.0889 204.428 53.762 203.471 52.9082C206.832 52.7668 211.83 50.6459 213.287 49.7106C211.661 49.4713 209.605 49.232 207.479 47.9921C210.116 47.432 213.95 44.528 214.967 43.4838C205.597 47.7854 209.181 36.3163 195.879 40.6505C193.47 35.6093 190.501 34.0431 190.501 34.0431C187.586 18.8108 201.203 12.3121 201.203 12.3121C196.869 11.1211 191.866 10.5229 186.863 10.5229C181.86 10.5229 176.857 11.1211 172.522 12.3121C172.522 12.3121 186.14 18.8108 183.225 34.0431C183.225 34.0431 180.255 35.6093 177.846 40.6505C164.544 36.3163 168.128 47.7854 158.758 43.4838C159.775 44.528 163.609 47.432 166.247 47.9921C164.12 49.232 162.059 49.4713 160.439 49.7106C161.891 50.6459 166.894 52.7668 170.255 52.9082C169.297 53.762 167.051 55.0889 165.458 55.4696C169.863 57.7591 174.143 59.0425 178.918 58.0419C180.217 60.3205 183.54 61.4571 186.857 61.4571H186.868Z" fill="white"/>
<path d="M186.874 95.9297C189.848 95.9297 192.616 96.8107 194.928 98.3225L194.998 90.72C194.248 91.2529 193.432 91.7206 192.546 92.1121C192.546 92.1121 192.954 89.79 192.834 87.9519C191.632 89.8335 189.169 92.1502 186.874 94.0372C184.579 92.1502 182.115 89.8335 180.913 87.9519C180.794 89.79 181.202 92.1067 181.202 92.1121C180.315 91.7206 179.505 91.2529 178.749 90.72L178.82 98.3225C181.136 96.8053 183.904 95.9297 186.874 95.9297Z" fill="#BF8F67"/>
<path d="M171.93 99.1599C173.653 99.1599 175.377 99.5569 176.661 100.345C178.754 101.64 178.825 103.413 176.867 104.74L176.155 102.097L175.231 105.539C174.529 105.778 173.768 105.936 172.985 106.012L171.93 102.097L170.875 106.012C170.091 105.936 169.33 105.778 168.629 105.539L167.704 102.097L166.992 104.74C165.034 103.418 165.105 101.64 167.198 100.345C168.482 99.5515 170.206 99.1599 171.93 99.1599Z" fill="#F0BA8E"/>
<path d="M164.621 99.1981C162.549 101.221 162.549 103.995 164.621 106.023C163.696 106.105 162.739 106.067 161.831 105.909L160.895 102.434L160.091 105.436C159.688 105.278 159.307 105.093 158.959 104.876C156.795 103.538 156.795 101.683 158.959 100.351C160.536 99.3776 162.679 99.0349 164.631 99.2035L164.621 99.1981Z" fill="#F0BA8E"/>
<path d="M163.457 74.1335C155.158 73.1763 156.692 86.8806 156.692 86.8806C155.642 82.269 155.822 78.6635 156.681 76.1456C157.828 72.7902 160.743 70.7183 163.457 74.1335Z" fill="#FFE7D4"/>
<path d="M159.036 94.0372C163.207 91.3942 163.625 85.4231 163.625 85.4231C163.778 88.8818 164.044 92.7918 164.512 96.6802C163.147 96.5986 161.733 96.7182 160.406 97.0608C159.9 96.0221 159.443 95.0161 159.036 94.0372Z" fill="#BF8F67"/>
<path d="M192.79 54.6103C191.491 51.5378 186.874 52.6907 186.874 52.6907C186.874 52.6907 182.257 51.5432 180.957 54.6103C182.458 55.8448 184.666 56.4593 186.874 56.4593C189.082 56.4593 191.289 55.8448 192.79 54.6103Z" fill="#FF0000"/>
<path d="M207.528 27.3378C208.088 31.0684 209.29 34.848 214.391 37.3061C214.978 34.4891 216.811 32.6727 218.589 30.9107C221.156 28.3711 221.983 26.0762 221.651 24.0369C221.015 28.1101 215.049 28.7246 213.494 33.6081C210.095 31.9657 208.431 29.7415 207.528 27.3324V27.3378Z" fill="#BF8F67"/>
<path d="M166.214 27.3378C165.654 31.0684 164.452 34.848 159.351 37.3061C158.764 34.4891 156.931 32.6727 155.153 30.9107C152.586 28.3711 151.759 26.0762 152.091 24.0369C152.727 28.1101 158.693 28.7246 160.248 33.6081C163.647 31.9657 165.311 29.7415 166.214 27.3324V27.3378Z" fill="#BF8F67"/>
<path d="M186.874 90.6872C192.056 85.7004 195.575 78.7722 195.575 78.7559C195.575 78.7559 192.546 83.4327 186.874 87.7724C181.202 83.4327 178.173 78.7559 178.173 78.7559C178.173 78.7722 181.691 85.7059 186.874 90.6872Z" fill="#FFE7D4"/>
<path d="M195.575 78.756C196.108 81.2249 195.874 84.0582 195.504 86.9567C201.018 80.9258 201.6 70.2669 201.6 70.2397C201.6 70.2397 200.513 76.2163 197.554 81.3663L195.575 78.756Z" fill="#FFE7D4"/>
<path d="M202.623 71.5448C203.585 73.1872 204.352 75.803 204.51 79.0332C209.584 72.0832 210.035 66.4003 209.453 62.7458C209.453 62.7458 209.763 67.3139 205.353 75.0416L202.623 71.5394V71.5448Z" fill="#FFE7D4"/>
<path d="M178.173 78.756C177.64 81.2249 177.873 84.0582 178.243 86.9567C172.729 80.9258 172.147 70.2669 172.147 70.2397C172.147 70.2397 173.235 76.2163 176.193 81.3663L178.173 78.756Z" fill="#FFE7D4"/>
<path d="M171.125 71.5448C170.162 73.1872 169.395 75.803 169.238 79.0332C164.164 72.0832 163.712 66.4003 164.294 62.7458C164.294 62.7458 163.984 67.3139 168.395 75.0416L171.125 71.5394V71.5448Z" fill="#FFE7D4"/>
<path d="M177.183 63.8389C181.305 67.8904 192.432 67.8904 196.559 63.8389C201.269 64.6166 205.641 63.7628 209.317 62.0225C209.002 60.5216 208.529 59.4394 208.219 58.8303C204.711 60.6847 200.496 61.6201 195.945 60.8153C192.083 64.8667 181.664 64.8667 177.803 60.8153C173.251 61.6201 169.036 60.6847 165.529 58.8303C165.219 59.4394 164.746 60.527 164.43 62.0225C168.106 63.7628 172.473 64.6166 177.188 63.8389H177.183Z" fill="#BF8F67"/>
<path d="M174.404 31.4546C175.092 31.4546 175.649 30.897 175.649 30.2092C175.649 29.5214 175.092 28.9639 174.404 28.9639C173.716 28.9639 173.159 29.5214 173.159 30.2092C173.159 30.897 173.716 31.4546 174.404 31.4546Z" fill="white"/>
<path d="M176.378 35.2939C176.819 35.2939 177.177 34.936 177.177 34.4945C177.177 34.053 176.819 33.6951 176.378 33.6951C175.936 33.6951 175.579 34.053 175.579 34.4945C175.579 34.936 175.936 35.2939 176.378 35.2939Z" fill="white"/>
<path d="M199.343 31.4546C200.031 31.4546 200.589 30.897 200.589 30.2092C200.589 29.5214 200.031 28.9639 199.343 28.9639C198.656 28.9639 198.098 29.5214 198.098 30.2092C198.098 30.897 198.656 31.4546 199.343 31.4546Z" fill="white"/>
<path d="M197.364 35.2939C197.805 35.2939 198.163 34.936 198.163 34.4945C198.163 34.053 197.805 33.6951 197.364 33.6951C196.922 33.6951 196.565 34.053 196.565 34.4945C196.565 34.936 196.922 35.2939 197.364 35.2939Z" fill="white"/>
<path d="M165.942 78.4133C165.942 78.4133 167.682 84.428 172.218 89.8063L172.359 86.5271C172.359 86.5271 173.866 89.8281 176.258 92.1013L176.226 88.4577C174.012 85.967 172.588 82.7856 171.717 79.4303C171.685 81.2521 171.375 85.2437 171.375 85.2546C169.471 83.3784 167.568 81.0291 165.942 78.4188V78.4133Z" fill="#BF8F67"/>
<path d="M207.805 78.4133C207.805 78.4133 206.065 84.428 201.53 89.8063L201.388 86.5271C201.388 86.5271 199.882 89.8281 197.489 92.1013L197.522 88.4577C199.735 85.967 201.16 82.7856 202.03 79.4303C202.063 81.2521 202.373 85.2437 202.373 85.2546C204.276 83.3784 206.179 81.0291 207.805 78.4188V78.4133Z" fill="#BF8F67"/>
</svg>
