<svg width="494" height="111" viewBox="0 0 494 111" fill="none" xmlns="http://www.w3.org/2000/svg">
<g opacity="0.8">
<path d="M51.2604 110.722C79.1292 110.722 101.721 108.496 101.721 105.751C101.721 103.006 79.1292 100.781 51.2604 100.781C23.3915 100.781 0.799377 103.006 0.799377 105.751C0.799377 108.496 23.3915 110.722 51.2604 110.722Z" fill="black"/>
</g>
<path d="M49.8737 99.7473C77.4181 99.7473 99.7473 77.4181 99.7473 49.8737C99.7473 22.3292 77.4181 0 49.8737 0C22.3292 0 0 22.3292 0 49.8737C0 77.4181 22.3292 99.7473 49.8737 99.7473Z" fill="#AF4700"/>
<path d="M73.3721 57.5198C75.618 61.3972 75.6724 65.8565 74.4869 70.2016C78.3263 68.8475 81.2683 71.9473 82.4321 75.3462C84.0146 79.9686 83.6339 87.6963 78.6743 97.9799C78.8211 98.0615 78.9625 98.1431 79.0985 98.2301C82.8508 100.547 82.8508 104.691 79.0985 107.013C76.2489 108.769 72.1322 109.014 68.9345 107.915C65.677 109.041 61.5657 108.742 58.7705 107.013C57.7318 106.371 56.9813 105.588 56.5191 104.745C52.2175 105.805 47.5243 105.811 43.2227 104.745C42.7605 105.588 42.01 106.371 40.9713 107.013C38.1706 108.742 34.0594 109.041 30.8073 107.915C27.6097 109.019 23.493 108.775 20.6433 107.013C16.891 104.696 16.891 100.552 20.6433 98.2301C20.7847 98.1431 20.9261 98.0615 21.0675 97.9799C16.1133 87.6963 15.7272 79.9741 17.3097 75.3462C18.4735 71.9473 21.421 68.8475 25.2549 70.2016C24.0694 65.8565 24.1292 61.3972 26.3698 57.5198C24.9939 56.5681 23.7649 55.4804 22.7099 54.3167C23.8573 54.0883 25.07 53.8925 26.1957 53.5934C21.557 52.2937 19.0608 49.667 17.7339 47.024C18.4789 47.1165 20.4911 47.4482 22.6555 47.3014C19.9309 45.6754 18.1255 43.5273 17.5273 41.6511C20.23 41.3846 22.2476 40.7321 23.7322 39.2583C22.6772 39.8293 21.47 40.3731 20.0778 40.9006C20.0234 36.6317 19.534 35.7779 16.3961 32.6727C4.18738 20.589 22.6337 12.5785 32.8195 10.5175C42.8203 7.17297 56.9161 7.17297 66.9169 10.5175C77.1027 12.5731 95.549 20.589 83.3403 32.6727C80.2079 35.7779 79.713 36.6317 79.6586 40.9006C78.2664 40.3786 77.0592 39.8293 76.0041 39.2583C77.4833 40.7266 79.5009 41.3846 82.2091 41.6511C81.6109 43.5273 79.8055 45.6808 77.0809 47.3014C79.2399 47.4482 81.252 47.1111 82.0025 47.024C80.6756 49.6616 78.1849 52.2937 73.5406 53.5934C74.6664 53.8925 75.8791 54.0883 77.0265 54.3167C75.9715 55.475 74.7425 56.5626 73.3721 57.5143V57.5198Z" fill="black"/>
<path d="M64.8178 99.16C63.0939 99.16 61.37 99.557 60.0866 100.346C57.9929 101.64 57.9222 103.413 59.8799 104.74L60.5923 102.097L61.5168 105.539C62.2183 105.778 62.9797 105.936 63.7628 106.012L64.8178 102.097L65.8728 106.012C66.6559 105.936 67.4172 105.778 68.1188 105.539L69.0433 102.097L69.7557 104.74C71.7134 103.418 71.6427 101.64 69.549 100.346C68.2656 99.5516 66.5417 99.16 64.8178 99.16Z" fill="#F0BA8E"/>
<path d="M70.8053 78.4133C69.1792 81.0236 67.2759 83.3729 65.3725 85.2491C65.3725 85.2382 65.0625 81.2466 65.0299 79.4248C64.1598 82.7802 62.735 85.9615 60.5216 88.4522L60.4401 97.4143C63.2788 96.3485 66.8354 96.4028 69.6034 97.5721C70.5388 90.3991 70.7672 83.0194 70.8053 78.4133Z" fill="#F0BA8E"/>
<path d="M72.1213 99.1981C74.1932 101.221 74.1932 103.995 72.1213 106.023C73.0458 106.105 74.0029 106.067 74.9111 105.909L75.8464 102.434L76.6513 105.436C77.0537 105.278 77.4344 105.093 77.7824 104.876C79.9468 103.538 79.9468 101.683 77.7824 100.351C76.2054 99.3776 74.0627 99.0349 72.1104 99.2035L72.1213 99.1981Z" fill="#F0BA8E"/>
<path d="M76.3413 97.0609C81.0508 87.3754 81.4804 80.284 80.0665 76.1456C78.919 72.7902 76.0041 70.7183 73.2905 74.1334C73.334 76.3359 73.4428 86.5597 72.2355 96.6802C73.6005 96.5986 75.0144 96.7182 76.3413 97.0609Z" fill="#F0BA8E"/>
<path d="M57.8134 58.0418C62.5881 59.0425 66.868 57.7591 71.2729 55.4696C69.6796 55.0889 67.4336 53.762 66.4765 52.9082C69.8373 52.7668 74.835 50.6459 76.2924 49.7105C74.6664 49.4713 72.6107 49.232 70.4844 47.9921C73.1219 47.4319 76.9559 44.5279 77.9728 43.4838C73.1654 41.7436 71.4252 36.1096 71.2566 35.5223C66.6396 29.7959 70.4953 22.8567 66.1284 16.6735C73.5026 20.6053 66.4058 32.0038 77.3855 37.3115C77.9728 34.4945 79.8055 32.6781 81.5838 30.9161C91.8184 20.7848 74.3618 14.5635 66.3786 12.9701L66.2263 12.9266C56.7149 9.71807 43.0161 9.71807 33.5047 12.9266L33.3524 12.9701C25.3746 14.5635 7.918 20.7848 18.1472 30.9161C19.9255 32.6781 21.7636 34.4945 22.3455 37.3115C33.3252 32.0038 26.2284 20.6108 33.6026 16.6735C29.2357 22.8567 33.0914 29.7904 28.4744 35.5223C28.3058 36.1096 26.5656 41.7436 21.7582 43.4838C22.7751 44.5279 26.6091 47.4319 29.2466 47.9921C27.1203 49.232 25.0592 49.4713 23.4386 49.7105C24.8906 50.6459 29.8937 52.7668 33.2545 52.9082C32.2974 53.762 30.0514 55.0889 28.4581 55.4696C32.863 57.7591 37.1428 59.0425 41.9176 58.0418C44.517 62.5936 55.1976 62.5936 57.7971 58.0418H57.8134Z" fill="#F0BA8E"/>
<path d="M28.5287 58.8304C27.4628 60.9023 24.5588 68.5103 32.2376 79.0332C32.4551 74.7208 33.7385 71.5068 35.147 70.2342C35.147 70.2614 35.7289 80.9203 41.2432 86.9512C40.8734 84.0527 40.6396 81.2194 41.1725 78.7505C41.1725 78.7668 44.691 85.7005 49.8736 90.6819C55.0562 85.695 58.5747 78.7668 58.5747 78.7505C59.1077 81.2194 58.8738 84.0527 58.504 86.9512C64.0184 80.9203 64.6002 70.2614 64.6002 70.2342C66.0087 71.5068 67.2921 74.7153 67.5097 79.0332C75.1884 68.5103 72.279 60.9023 71.2185 58.8304C67.7109 60.6848 63.4963 61.6201 58.9445 60.8153C55.0834 64.8667 44.6638 64.8667 40.8027 60.8153C36.2509 61.6201 32.0363 60.6848 28.5287 58.8304Z" fill="#F0BA8E"/>
<path d="M30.1439 97.5721C32.9119 96.4028 36.4685 96.3485 39.3072 97.4143L39.2256 88.4522C37.0123 85.9615 35.5875 82.7802 34.7174 79.4248C34.6847 81.2466 34.3748 85.2382 34.3748 85.2491C32.4714 83.3729 30.568 81.0236 28.942 78.4133C28.9801 83.0194 29.2139 90.3991 30.1439 97.5775V97.5721Z" fill="#F0BA8E"/>
<path d="M27.5118 96.6802C26.3045 86.5597 26.4187 76.3359 26.4568 74.1334C23.7431 70.7237 20.8282 72.7902 19.6808 76.1456C18.2614 80.284 18.6965 87.3809 23.4059 97.0609C24.7329 96.7128 26.1468 96.5932 27.5118 96.6802Z" fill="#F0BA8E"/>
<path d="M55.9753 102.292C56.0732 101.053 56.7204 99.8289 57.9276 98.8337L58.0038 90.72C57.2533 91.2529 56.4376 91.7206 55.5512 92.1121C55.5512 92.1121 55.959 89.79 55.8394 87.9519C54.6375 89.8335 52.174 92.1502 49.8791 94.0372C47.5842 92.1502 45.1207 89.8335 43.9189 87.9519C43.7992 89.79 44.2071 92.1067 44.2071 92.1121C43.3207 91.7206 42.5104 91.2529 41.7545 90.72L41.8306 98.8337C43.0379 99.8289 43.685 101.053 43.7829 102.292C47.7093 103.266 52.0598 103.271 55.9862 102.292H55.9753Z" fill="#F0BA8E"/>
<path d="M61.4787 28.3874C63.5888 28.3874 65.2964 30.095 65.2964 32.205C65.2964 34.315 63.5888 36.0226 61.4787 36.0226C59.3687 36.0226 57.6611 34.315 57.6611 32.205C57.6611 30.095 59.3687 28.3874 61.4787 28.3874Z" fill="black"/>
<path d="M57.9004 24.8743C57.9004 24.8743 61.5657 22.9655 64.3392 25.7009C64.3392 25.7009 61.5657 24.0531 58.0962 25.8749L57.9004 24.8797V24.8743Z" fill="black"/>
<path d="M38.2685 28.3874C36.1585 28.3874 34.4509 30.095 34.4509 32.205C34.4509 34.315 36.1585 36.0226 38.2685 36.0226C40.3786 36.0226 42.0862 34.315 42.0862 32.205C42.0862 30.095 40.3786 28.3874 38.2685 28.3874Z" fill="black"/>
<path d="M41.8469 24.8743C41.8469 24.8743 38.1816 22.9655 35.4081 25.7009C35.4081 25.7009 38.1816 24.0531 41.6511 25.8749L41.8469 24.8797V24.8743Z" fill="black"/>
<path d="M55.0617 40.0088C55.0617 41.3846 53.3052 42.5321 50.9613 42.8095V45.4361C59.9343 52.0272 64.8069 37.0939 68.9237 44.653C66.8191 42.7442 64.0238 46.8065 59.9506 48.8295C62.9308 62.2727 36.8057 62.2727 39.7858 48.8295C35.7181 46.8011 32.9174 42.7388 30.8128 44.653C34.9295 37.0939 39.8021 52.0272 48.7752 45.4361V42.8095C46.4313 42.5321 44.6748 41.3846 44.6748 40.0088C44.6748 36.2564 55.0508 36.2564 55.0508 40.0088H55.0617Z" fill="black"/>
<path d="M73.285 74.1334C81.5837 73.1763 80.0501 86.8806 80.0501 86.8806C81.0997 82.269 80.9203 78.6635 80.061 76.1456C78.9136 72.7902 75.9987 70.7183 73.285 74.1334Z" fill="#FFE7D4"/>
<path d="M77.7064 94.0373C73.5353 91.3943 73.1165 85.4232 73.1165 85.4232C72.9643 88.8818 72.6978 92.7919 72.2301 96.6802C73.5951 96.5986 75.009 96.7183 76.3359 97.0609C76.8417 96.0222 77.2985 95.0161 77.7064 94.0373Z" fill="#BF8F67"/>
<path d="M68.9236 44.653C66.819 42.7442 64.0238 46.8065 59.9506 48.8295C61.4407 55.5511 55.6544 58.9119 49.8682 58.9119C44.082 58.9119 38.2957 55.5511 39.7858 48.8295C35.718 46.8011 32.9174 42.7387 30.8128 44.653C34.9295 37.0939 39.8021 52.0272 48.7751 45.4361V42.8094C46.4313 42.5321 44.6747 41.3846 44.6747 40.0088C44.6747 38.1326 47.2687 37.1918 49.8628 37.1918C52.4568 37.1918 55.0508 38.1326 55.0508 40.0088C55.0508 41.3846 53.2943 42.5321 50.9504 42.8094V45.4361C59.9234 52.0272 64.796 37.0939 68.9128 44.653H68.9236ZM49.8682 61.457C53.1855 61.457 56.5082 60.3204 57.808 58.0418C62.5827 59.0424 66.8626 57.759 71.2675 55.4696C69.6741 55.0889 67.4281 53.762 66.471 52.9082C69.8318 52.7668 74.8295 50.6459 76.2869 49.7105C74.6609 49.4712 72.6053 49.2319 70.479 47.992C73.1165 47.4319 76.9504 44.5279 77.9673 43.4838C68.5973 47.7854 72.1811 36.3162 58.8793 40.6505C56.4702 35.6093 53.5009 34.0431 53.5009 34.0431C50.586 18.8107 64.2033 12.3121 64.2033 12.3121C59.869 11.1211 54.8659 10.5229 49.8628 10.5229C44.8596 10.5229 39.8565 11.1211 35.5222 12.3121C35.5222 12.3121 49.1395 18.8107 46.2246 34.0431C46.2246 34.0431 43.2554 35.6093 40.8462 40.6505C27.5444 36.3162 31.1282 47.7854 21.7582 43.4838C22.7751 44.5279 26.609 47.4319 29.2466 47.992C27.1202 49.2319 25.0592 49.4712 23.4386 49.7105C24.8906 50.6459 29.8937 52.7668 33.2545 52.9082C32.2974 53.762 30.0514 55.0889 28.458 55.4696C32.863 57.759 37.1428 59.0424 41.9176 58.0418C43.2173 60.3204 46.54 61.457 49.8573 61.457H49.8682Z" fill="white"/>
<path d="M49.8736 95.9297C52.8483 95.9297 55.6164 96.8107 57.9276 98.3225L57.9983 90.72C57.2478 91.2529 56.4321 91.7206 55.5457 92.1121C55.5457 92.1121 55.9535 89.79 55.8339 87.9519C54.632 89.8335 52.1685 92.1502 49.8736 94.0372C47.5787 92.1502 45.1152 89.8335 43.9134 87.9519C43.7937 89.79 44.2016 92.1067 44.2016 92.1121C43.3152 91.7206 42.5049 91.2529 41.749 90.72L41.8197 98.3225C44.1363 96.8053 46.9044 95.9297 49.8736 95.9297Z" fill="#BF8F67"/>
<path d="M34.9295 99.16C36.6534 99.16 38.3773 99.557 39.6607 100.346C41.7544 101.64 41.8251 103.413 39.8674 104.74L39.155 102.097L38.2305 105.539C37.5289 105.778 36.7676 105.936 35.9845 106.012L34.9295 102.097L33.8745 106.012C33.0914 105.936 32.33 105.778 31.6285 105.539L30.704 102.097L29.9916 104.74C28.0339 103.418 28.1045 101.64 30.1983 100.346C31.4817 99.5516 33.2056 99.16 34.9295 99.16Z" fill="#F0BA8E"/>
<path d="M27.6206 99.1981C25.5486 101.221 25.5486 103.995 27.6206 106.023C26.6961 106.105 25.739 106.067 24.8308 105.909L23.8954 102.434L23.0906 105.436C22.6881 105.278 22.3075 105.093 21.9594 104.876C19.795 103.538 19.795 101.683 21.9594 100.351C23.5365 99.3776 25.6791 99.0349 27.6315 99.2035L27.6206 99.1981Z" fill="#F0BA8E"/>
<path d="M26.4568 74.1334C18.1581 73.1763 19.6917 86.8806 19.6917 86.8806C18.6421 82.269 18.8216 78.6635 19.6808 76.1456C20.8283 72.7902 23.7431 70.7183 26.4568 74.1334Z" fill="#FFE7D4"/>
<path d="M22.0355 94.0373C26.2066 91.3943 26.6254 85.4232 26.6254 85.4232C26.7776 88.8818 27.0441 92.7919 27.5118 96.6802C26.1468 96.5986 24.7329 96.7183 23.4059 97.0609C22.9002 96.0222 22.4434 95.0161 22.0355 94.0373Z" fill="#BF8F67"/>
<path d="M55.7904 54.6103C54.4907 51.5378 49.8737 52.6907 49.8737 52.6907C49.8737 52.6907 45.2566 51.5432 43.9569 54.6103C45.4579 55.8448 47.6658 56.4593 49.8737 56.4593C52.0816 56.4593 54.2895 55.8448 55.7904 54.6103Z" fill="#FF0000"/>
<path d="M70.528 27.3378C71.0881 31.0684 72.2899 34.8479 77.391 37.306C77.9783 34.489 79.8109 32.6727 81.5892 30.9107C84.1561 28.371 84.9827 26.0761 84.6509 24.0368C84.0147 28.11 78.049 28.7245 76.4937 33.608C73.0948 31.9657 71.4307 29.7415 70.528 27.3323V27.3378Z" fill="#BF8F67"/>
<path d="M29.214 27.3378C28.6538 31.0684 27.452 34.8479 22.351 37.306C21.7637 34.489 19.931 32.6727 18.1527 30.9107C15.5859 28.371 14.7593 26.0761 15.091 24.0368C15.7273 28.11 21.693 28.7245 23.2483 33.608C26.6472 31.9657 28.3112 29.7415 29.214 27.3323V27.3378Z" fill="#BF8F67"/>
<path d="M49.8737 90.6873C55.0563 85.7005 58.5748 78.7722 58.5748 78.7559C58.5748 78.7559 55.5457 83.4328 49.8737 87.7724C44.2016 83.4328 41.1725 78.7559 41.1725 78.7559C41.1725 78.7722 44.6911 85.7059 49.8737 90.6873Z" fill="#FFE7D4"/>
<path d="M58.5747 78.7559C59.1077 81.2248 58.8738 84.0581 58.504 86.9567C64.0184 80.9257 64.6002 70.2669 64.6002 70.2397C64.6002 70.2397 63.5126 76.2163 60.5542 81.3662L58.5747 78.7559Z" fill="#FFE7D4"/>
<path d="M65.6227 71.5449C66.5852 73.1872 67.352 75.803 67.5097 79.0333C72.5836 72.0833 73.0349 66.4003 72.453 62.7459C72.453 62.7459 72.763 67.314 68.3527 75.0416L65.6227 71.5394V71.5449Z" fill="#FFE7D4"/>
<path d="M41.1726 78.7559C40.6396 81.2248 40.8735 84.0581 41.2432 86.9567C35.7289 80.9257 35.147 70.2669 35.147 70.2397C35.147 70.2397 36.2347 76.2163 39.1931 81.3662L41.1726 78.7559Z" fill="#FFE7D4"/>
<path d="M34.1247 71.5449C33.1621 73.1872 32.3953 75.803 32.2376 79.0333C27.1638 72.0833 26.7124 66.4003 27.2943 62.7459C27.2943 62.7459 26.9843 67.314 31.3947 75.0416L34.1247 71.5394V71.5449Z" fill="#FFE7D4"/>
<path d="M40.1828 63.8389C44.305 67.8904 55.4315 67.8904 59.5591 63.8389C64.2686 64.6166 68.6409 63.7628 72.3171 62.0226C72.0017 60.5216 71.5285 59.4394 71.2186 58.8304C67.7109 60.6848 63.4963 61.6201 58.9446 60.8153C55.0834 64.8667 44.6639 64.8667 40.8028 60.8153C36.251 61.6201 32.0364 60.6848 28.5288 58.8304C28.2188 59.4394 27.7457 60.5271 27.4302 62.0226C31.1065 63.7628 35.4733 64.6166 40.1882 63.8389H40.1828Z" fill="#BF8F67"/>
<path d="M37.4039 31.4545C38.0917 31.4545 38.6493 30.8969 38.6493 30.2092C38.6493 29.5214 38.0917 28.9638 37.4039 28.9638C36.7161 28.9638 36.1586 29.5214 36.1586 30.2092C36.1586 30.8969 36.7161 31.4545 37.4039 31.4545Z" fill="white"/>
<path d="M39.378 35.2939C39.8195 35.2939 40.1774 34.936 40.1774 34.4945C40.1774 34.053 39.8195 33.6951 39.378 33.6951C38.9365 33.6951 38.5786 34.053 38.5786 34.4945C38.5786 34.936 38.9365 35.2939 39.378 35.2939Z" fill="white"/>
<path d="M62.3434 31.4545C63.0312 31.4545 63.5888 30.8969 63.5888 30.2092C63.5888 29.5214 63.0312 28.9638 62.3434 28.9638C61.6556 28.9638 61.0981 29.5214 61.0981 30.2092C61.0981 30.8969 61.6556 31.4545 62.3434 31.4545Z" fill="white"/>
<path d="M60.3639 35.2939C60.8054 35.2939 61.1633 34.936 61.1633 34.4945C61.1633 34.053 60.8054 33.6951 60.3639 33.6951C59.9224 33.6951 59.5645 34.053 59.5645 34.4945C59.5645 34.936 59.9224 35.2939 60.3639 35.2939Z" fill="white"/>
<path d="M28.942 78.4133C28.942 78.4133 30.6822 84.4279 35.2177 89.8063L35.3591 86.5271C35.3591 86.5271 36.8655 89.8281 39.2583 92.1012L39.2256 88.4576C37.0123 85.9669 35.5875 82.7856 34.7174 79.4302C34.6847 81.252 34.3748 85.2437 34.3748 85.2545C32.4714 83.3784 30.568 81.0291 28.942 78.4187V78.4133Z" fill="#BF8F67"/>
<path d="M70.8053 78.4133C70.8053 78.4133 69.065 84.4279 64.5296 89.8063L64.3882 86.5271C64.3882 86.5271 62.8818 89.8281 60.489 92.1012L60.5216 88.4576C62.735 85.9669 64.1598 82.7856 65.0299 79.4302C65.0625 81.252 65.3725 85.2437 65.3725 85.2545C67.2759 83.3784 69.1792 81.0291 70.8053 78.4187V78.4133Z" fill="#BF8F67"/>
<path d="M126.177 62.5664C127.036 62.338 127.814 62.2238 128.504 62.2238C129.337 62.2238 130.125 62.3652 130.876 62.6534C131.621 62.9417 132.328 63.4148 132.986 64.0782C133.1 63.9042 133.16 63.7465 133.16 63.6051C133.16 63.5779 133.154 63.5181 133.138 63.4311C133.121 63.3441 133.1 63.2299 133.073 63.0885V62.4413C133.073 60.9458 133.165 59.4123 133.355 57.8298C133.54 56.2527 133.877 54.6267 134.367 52.9626C134.595 52.1577 134.932 51.2876 135.378 50.3577C135.824 49.4223 136.357 48.5468 136.972 47.731C137.592 46.9099 138.299 46.2301 139.103 45.6863C139.908 45.1425 140.8 44.8651 141.774 44.8651C142.807 44.8651 143.726 45.2023 144.531 45.8766C145.336 46.5509 145.836 47.4918 146.037 48.699C146.097 49.0743 146.124 49.4441 146.124 49.8193C146.124 50.2489 146.075 50.7601 145.972 51.3474C145.869 51.9348 145.705 52.6037 145.477 53.3541C145.162 54.1862 144.814 55.0128 144.444 55.8339C144.069 56.6551 143.682 57.4654 143.28 58.2703C142.676 59.5645 142.116 60.8643 141.6 62.1694C141.083 63.4746 140.664 64.8342 140.349 66.2426C140.033 67.8252 139.876 69.4022 139.876 70.9847C139.876 72.0778 139.946 73.1709 140.093 74.2585C140.148 74.661 140.186 74.9927 140.202 75.2483C140.218 75.5093 140.224 75.7105 140.224 75.8519C140.224 76.113 140.207 76.3686 140.18 76.6296C140.18 77.206 140.006 77.7662 139.664 78.31C139.321 78.8538 138.815 79.1312 138.157 79.1312C137.668 79.1312 137.26 78.9517 136.928 78.5928C136.596 78.2339 136.346 77.8532 136.172 77.4508C135.509 76.1565 134.987 74.835 134.601 73.4863C134.215 72.1376 133.932 70.7455 133.758 69.3043C133.698 68.9019 133.584 68.6083 133.415 68.4234C133.241 68.2385 132.996 68.0699 132.681 67.9285C132.306 67.7871 131.996 67.7055 131.757 67.6892C131.512 67.6729 131.316 67.6674 131.175 67.6674C130.946 67.6674 130.701 67.6838 130.44 67.711C129.695 67.8578 129.01 67.9611 128.396 68.0318C127.776 68.1025 127.237 68.1406 126.781 68.1406C126.465 68.1406 126.15 68.1243 125.834 68.0971H125.704C125.562 68.0971 125.459 68.146 125.405 68.2493C125.345 68.3527 125.318 68.4995 125.318 68.7007C125.345 69.3315 125.41 69.9515 125.513 70.5551C125.611 71.1588 125.736 71.7787 125.878 72.4095C125.932 72.8392 125.997 73.2634 126.074 73.6821C126.144 74.1008 126.226 74.5196 126.313 74.9546C126.373 75.1287 126.4 75.2972 126.4 75.4713C126.4 75.5311 126.394 75.6181 126.378 75.7323C126.362 75.8465 126.329 76.0205 126.269 76.2489C126.155 76.8254 125.927 77.2713 125.579 77.5867C125.236 77.9021 124.834 78.0598 124.371 78.0598C123.708 78.0598 123.099 77.8097 122.539 77.3039C121.979 76.8036 121.467 76.1565 121.011 75.3625C120.548 74.574 120.141 73.6821 119.782 72.6923C119.423 71.7026 119.107 70.7292 118.835 69.7829C118.563 68.8367 118.346 67.9611 118.188 67.1563C118.031 66.3514 117.905 65.7206 117.824 65.2583C117.623 63.9967 117.47 62.8003 117.372 61.68C117.269 60.5597 117.22 59.483 117.22 58.4497V57.6721C117.247 56.5518 117.383 55.2901 117.628 53.8816C117.873 52.4731 118.275 51.1299 118.835 49.8519C119.395 48.574 120.13 47.4482 121.032 46.4694C121.935 45.4905 123.039 44.8597 124.328 44.5714C124.643 44.5116 124.959 44.4844 125.274 44.4844C125.818 44.4844 126.411 44.6095 127.042 44.8488C127.672 45.0935 128.233 45.6047 128.722 46.3769C129.44 47.5244 129.799 48.8187 129.799 50.2544C129.799 50.5426 129.782 50.8308 129.755 51.1136C129.641 52.0925 129.445 53.0387 129.173 53.9578C128.901 54.8768 128.591 55.7959 128.249 56.7149C128.222 56.8618 128.162 57.0032 128.075 57.1445L127.988 57.4436C127.928 57.5905 127.874 57.7319 127.814 57.8733L126.955 60.1573C126.808 60.5597 126.672 60.9622 126.547 61.3646C126.416 61.767 126.297 62.1694 126.182 62.5719L126.177 62.5664Z" fill="black"/>
<path d="M147.206 64.0347C147.206 63.0287 147.272 61.9573 147.402 60.8262C147.533 59.6896 147.734 58.5585 148.006 57.4219C148.278 56.2853 148.658 55.2085 149.148 54.1916C149.637 53.1692 150.252 52.2882 151.002 51.5432C151.459 51.1136 151.927 50.7764 152.405 50.5317C152.878 50.287 153.401 50.1673 153.977 50.1673C155.07 50.1673 155.973 50.5099 156.691 51.2006C157.408 51.8912 157.871 52.7668 158.072 53.8272C158.273 54.7735 158.355 55.7143 158.311 56.6497C158.268 57.585 158.159 58.5095 157.99 59.4286C157.789 60.4618 157.572 61.4896 157.343 62.512C157.115 63.5344 156.897 64.5731 156.696 65.639C156.321 67.6239 156.266 69.6904 156.522 71.844C156.609 72.4476 156.789 72.9697 157.06 73.4156C157.332 73.8615 157.664 74.2259 158.05 74.5141C158.436 74.8023 158.871 75.009 159.344 75.1395C159.818 75.27 160.285 75.3353 160.748 75.3353C161.351 75.3353 161.917 75.2211 162.45 74.9927C162.983 74.7643 163.445 74.4543 163.853 74.0682C164.255 73.6821 164.571 73.2198 164.799 72.6869C165.027 72.1539 165.142 71.5884 165.142 70.9847C165.142 70.3267 165.082 69.6687 164.968 69.0215C164.853 68.3744 164.75 67.7218 164.668 67.0584C164.38 65.3616 164.146 63.6921 163.956 62.0389C163.771 60.3857 163.749 58.6999 163.891 56.9759C163.945 56.3723 164.076 55.7415 164.277 55.078C164.478 54.42 164.755 53.8055 165.12 53.2453C165.479 52.6852 165.919 52.2175 166.436 51.8423C166.952 51.4671 167.572 51.2822 168.29 51.2822C169.182 51.2822 170.02 51.5432 170.814 52.0598C171.602 52.5764 172.244 53.1964 172.733 53.9142C173.364 54.8333 173.826 55.7904 174.115 56.7802C174.403 57.7699 174.571 58.8141 174.631 59.9071C174.773 62.0063 174.675 64.051 174.332 66.0469C173.99 68.0427 173.353 70.0059 172.434 71.931C170.248 76.5263 166.588 78.9136 161.444 79.0822C160.008 79.1366 158.643 79.0006 157.349 78.6743C156.054 78.3426 154.766 77.8749 153.471 77.2713C151.921 76.4664 150.687 75.3027 149.768 73.78C148.849 72.2845 148.185 70.7183 147.783 69.0814C147.38 67.4445 147.196 65.7641 147.223 64.0402L147.206 64.0347Z" fill="black"/>
<path d="M188.319 59.2926C188.52 59.0914 188.684 58.9282 188.814 58.7977C188.945 58.6672 189.081 58.5476 189.222 58.4334C190.027 57.6557 190.902 57.0249 191.849 56.5354C192.795 56.046 193.833 55.8013 194.954 55.8013C195.644 55.8013 196.335 55.9046 197.02 56.1004C197.711 56.3016 198.347 56.617 198.94 57.0466C199.527 57.4762 200.038 58.0473 200.468 58.7488C200.898 59.4503 201.202 60.3095 201.371 61.3102C201.659 63.0069 201.659 64.6492 201.371 66.2426C201.083 67.836 200.68 69.4403 200.164 71.05C199.99 71.6264 199.739 72.3008 199.408 73.073C199.076 73.8506 198.673 74.5794 198.2 75.27C197.727 75.9607 197.189 76.548 196.585 77.0374C195.982 77.5269 195.307 77.7716 194.562 77.7716C193.899 77.7716 193.295 77.5432 192.751 77.0809C192.207 76.6241 191.832 75.977 191.631 75.1395C191.484 74.4815 191.435 73.8343 191.479 73.1981C191.522 72.5672 191.615 71.9201 191.762 71.2566C191.903 70.5116 192.099 69.772 192.343 69.0378C192.588 68.3037 192.822 67.5641 193.056 66.8191C193.458 65.639 193.746 64.4643 193.915 63.2842C193.969 62.8546 194.008 62.425 194.024 61.9899C194.04 61.5603 193.975 61.1416 193.828 60.7392C193.485 59.5319 192.691 59.0152 191.457 59.1893C190.538 59.2763 189.673 59.6787 188.874 60.3966C188.069 61.1144 187.482 61.8757 187.106 62.6806C186.617 63.8281 186.225 64.9918 185.921 66.1719C185.622 67.352 185.48 68.5865 185.513 69.8753C185.54 70.7944 185.665 71.6808 185.877 72.5237C186.095 73.3721 186.399 74.2096 186.802 75.047C186.943 75.3625 187.085 75.6561 187.21 75.928C187.34 76.1999 187.46 76.4936 187.574 76.809C187.748 77.3256 187.688 77.7498 187.4 78.0816C187.112 78.4133 186.699 78.5329 186.149 78.4459C185.774 78.3589 185.372 78.174 184.942 77.8858C184.512 77.5976 184.099 77.2604 183.713 76.8743C183.327 76.4882 182.979 76.0857 182.68 75.667C182.381 75.2483 182.141 74.8839 181.967 74.5685C179.123 69.0813 178.389 63.3495 179.77 57.3729C179.912 56.7693 180.135 56.1113 180.439 55.388C180.738 54.6701 181.119 54.0067 181.581 53.403C182.038 52.7994 182.566 52.2882 183.153 51.8749C183.74 51.4562 184.393 51.2495 185.116 51.2495C185.693 51.2495 186.22 51.4018 186.709 51.7009C187.199 52 187.612 52.4405 187.96 53.0169C188.276 53.5607 188.482 54.1318 188.586 54.7191C188.684 55.3064 188.722 55.9209 188.694 56.5517C188.667 56.9542 188.607 57.3784 188.52 57.8243C188.433 58.2702 188.363 58.7488 188.303 59.2654L188.319 59.2926Z" fill="black"/>
<path d="M221.889 65.1115C221.916 64.5949 221.889 64.1489 221.802 63.7737C221.715 63.3985 221.644 63.0287 221.585 62.6534C221.557 62.4522 221.525 62.2564 221.498 62.0715C221.47 61.8867 221.427 61.7072 221.367 61.5332L220.937 59.2491C220.878 59.0479 220.845 58.863 220.829 58.689C220.812 58.515 220.78 58.3301 220.72 58.1289C220.606 57.4382 220.557 56.7584 220.568 56.0841C220.584 55.4098 220.66 54.7246 220.807 54.0393C220.921 53.5227 221.106 53.0333 221.367 52.5765C221.628 52.1197 221.943 51.7009 222.313 51.3257C222.689 50.9504 223.113 50.6568 223.586 50.4447C224.059 50.2272 224.57 50.1238 225.114 50.1238C226.207 50.1238 227.126 50.4882 227.871 51.2224C228.616 51.9565 229.193 52.7831 229.595 53.7022C230.025 54.6484 230.313 55.6273 230.454 56.6334C230.596 57.6394 230.655 58.6564 230.628 59.6951C230.568 61.7616 230.286 63.752 229.769 65.6662C229.252 67.575 228.545 69.4512 227.659 71.2893C226.767 73.1002 225.614 74.6011 224.189 75.7921C222.77 76.9831 221.139 77.9239 219.301 78.6145C218.409 78.9571 217.511 79.2345 216.609 79.4357C215.706 79.6369 214.776 79.7348 213.83 79.7348C212.448 79.762 211.165 79.5118 209.974 78.9789C208.783 78.4459 207.766 77.7118 206.934 76.7819C206.102 75.8465 205.477 74.7643 205.058 73.5298C204.639 72.2954 204.52 70.9847 204.694 69.6089C204.835 68.3472 205.145 67.1617 205.618 66.0523C206.091 64.9484 206.711 63.9695 207.472 63.1211C208.234 62.2728 209.137 61.5767 210.186 61.0329C211.236 60.489 212.421 60.141 213.743 59.9996C214.346 59.9452 214.934 59.9778 215.51 60.1084C216.087 60.2389 216.647 60.4292 217.191 60.6902C218.855 61.4353 220.176 62.5555 221.155 64.0511C221.269 64.1979 221.378 64.3447 221.476 64.5024C221.574 64.6601 221.715 64.8668 221.884 65.1278L221.889 65.1115ZM211.459 68.7333C211.518 68.1569 211.431 67.662 211.198 67.2487C210.969 66.83 210.621 66.5961 210.164 66.5363C209.849 66.4765 209.599 66.5581 209.408 66.7756C209.224 66.9931 209.098 67.2868 209.044 67.6566C208.984 68.2602 209.088 68.7986 209.343 69.2717C209.604 69.7448 209.931 70.0113 210.333 70.0711C210.621 70.131 210.866 70.0276 211.067 69.772C211.268 69.511 211.399 69.1684 211.453 68.7388L211.459 68.7333ZM209.952 72.3552C209.892 73.0458 210.224 73.6495 210.942 74.1661C211.66 74.6827 212.535 74.9981 213.569 75.1123C214.602 75.2265 215.472 75.0851 216.174 74.6827C216.875 74.2803 217.272 73.7473 217.359 73.0893C217.413 72.6869 217.365 72.3769 217.207 72.1648C217.049 71.9473 216.87 71.757 216.668 71.583C216.467 71.4089 216.271 71.2295 216.087 71.0446C215.902 70.8597 215.777 70.6041 215.722 70.2887C215.635 69.7122 215.293 69.3859 214.689 69.2989C214.515 69.2717 214.314 69.2989 214.085 69.3859C213.857 69.4729 213.656 69.6034 213.482 69.772C213.193 70.0874 212.916 70.2723 212.644 70.3322C212.372 70.392 212.106 70.4246 211.845 70.4409C211.584 70.4572 211.344 70.5062 211.111 70.5932C210.882 70.6802 210.665 70.9249 210.463 71.3274C210.349 71.5286 210.241 71.708 210.143 71.8657C210.039 72.0234 209.979 72.1866 209.947 72.3606L209.952 72.3552ZM214.694 66.9659C214.749 66.4221 214.716 65.9816 214.586 65.6499C214.455 65.3182 214.232 65.1278 213.917 65.068C213.514 65.0082 213.155 65.1931 212.84 65.6064C212.525 66.0251 212.34 66.4765 212.28 66.9659C212.22 67.4554 212.285 67.885 212.476 68.2602C212.66 68.6354 212.927 68.8475 213.275 68.9074C213.65 68.9672 213.966 68.7986 214.221 68.4125C214.482 68.0264 214.64 67.5424 214.694 66.9714V66.9659ZM218.055 67.9557C218.115 67.4662 218.055 67.0584 217.881 66.7266C217.707 66.3949 217.462 66.2046 217.147 66.1448C216.804 66.0904 216.484 66.2372 216.201 66.5961C215.913 66.955 215.738 67.3955 215.684 67.9122C215.597 68.8584 215.913 69.375 216.63 69.4621C216.973 69.5219 217.283 69.4022 217.555 69.1194C217.827 68.8312 217.99 68.4451 218.05 67.9557H218.055ZM219.349 69.2065C219.148 69.1793 218.942 69.2119 218.724 69.3152C218.507 69.4185 218.316 69.5545 218.142 69.7231C217.968 69.8917 217.827 70.0874 217.713 70.305C217.598 70.5225 217.528 70.7563 217.495 71.0174C217.468 71.2784 217.533 71.5068 217.691 71.708C217.849 71.9092 218.028 72.0234 218.229 72.0506C218.659 72.1105 219.067 71.9419 219.458 71.5558C219.844 71.1696 220.067 70.7292 220.127 70.2397C220.154 69.9515 220.089 69.7176 219.931 69.5273C219.774 69.3424 219.578 69.2337 219.349 69.2065Z" fill="black"/>
<path d="M249.64 78.8592H248.993C246.894 78.8592 244.871 78.4568 242.919 77.6519C240.966 76.8471 239.112 75.6289 237.361 73.9866C236.469 73.1546 235.746 72.2246 235.185 71.2077C234.625 70.1907 234.261 69.2336 234.087 68.3418C233.913 67.4499 233.826 66.6614 233.826 65.9707C233.826 65.5411 233.869 64.932 233.956 64.138C234.043 63.3495 234.332 62.3924 234.816 61.2721C235.447 59.7766 236.279 58.3409 237.317 56.9651C238.351 55.5838 239.536 54.3656 240.874 53.2997C242.212 52.2393 243.658 51.38 245.224 50.7329C246.791 50.0857 248.422 49.7649 250.113 49.7649C250.456 49.7649 250.804 49.7812 251.147 49.8084C251.489 49.8356 251.837 49.8791 252.18 49.9389C253.79 50.1999 255.116 50.7438 256.166 51.5758C257.216 52.4079 257.977 53.365 258.45 54.4417C258.923 55.5185 259.162 56.6333 259.162 57.7808C259.162 57.895 259.146 58.3137 259.119 59.0316C259.092 59.7494 258.776 60.6957 258.173 61.8757C257.254 63.7139 256.025 65.1278 254.486 66.123C252.947 67.1127 251.147 67.6946 249.075 67.8686C248.612 67.8958 248.172 67.9121 247.737 67.9121C246.992 67.9121 246.133 67.8578 245.175 67.7381C244.213 67.6239 243.142 67.4064 241.967 67.091C241.738 67.0312 241.494 67.004 241.233 67.004C240.83 67.004 240.379 67.1345 239.873 67.3901C239.367 67.6511 238.976 68.01 238.688 68.4668C238.372 68.9835 238.215 69.4729 238.215 69.9297C238.215 70.5062 238.443 71.0663 238.905 71.6101C239.998 72.8772 241.418 73.5515 243.174 73.6331C243.348 73.6603 243.533 73.6766 243.734 73.6766C244.137 73.6766 244.594 73.6168 245.116 73.5026C245.632 73.3884 246.176 73.2579 246.753 73.1165C247.846 72.8283 248.895 72.4639 249.896 72.018C250.902 71.572 251.935 71.1805 253.001 70.8325C253.746 70.5714 254.409 70.3865 254.986 70.2723C255.562 70.1581 256.046 70.0983 256.449 70.0983C256.791 70.0983 257.15 70.1255 257.526 70.1853C257.585 70.1853 257.623 70.2016 257.656 70.2288H257.955C257.982 70.256 258.026 70.2723 258.086 70.2723C259.032 70.5334 259.636 70.914 259.897 71.4143C260.158 71.9201 260.283 72.3551 260.283 72.7304C260.283 73.16 260.169 73.6222 259.94 74.1117C259.478 75.1177 258.869 75.928 258.107 76.548C257.346 77.1679 256.503 77.6465 255.584 77.9891C254.665 78.3317 253.697 78.5656 252.675 78.6798C251.652 78.794 250.641 78.8538 249.635 78.8538L249.64 78.8592ZM246.578 56.6225C246.693 56.307 246.753 56.0025 246.753 55.7197C246.753 55.4913 246.693 55.2031 246.578 54.8605C246.464 54.5179 246.176 54.2732 245.719 54.1263C245.605 54.0991 245.502 54.0828 245.415 54.0828C245.214 54.0828 245.012 54.1481 244.811 54.2786C244.61 54.4091 244.452 54.6593 244.338 55.0345C244.251 55.3499 244.207 55.6545 244.207 55.9372C244.207 56.22 244.267 56.5626 244.381 56.9487C244.496 57.3349 244.757 57.6013 245.159 57.7482C245.246 57.7754 245.333 57.7917 245.42 57.7917C245.621 57.7917 245.828 57.7047 246.046 57.5306C246.263 57.3566 246.443 57.0575 246.584 56.6279L246.578 56.6225ZM244.294 60.0268C244.235 60.2008 244.207 60.3694 244.207 60.5434C244.207 61.06 244.479 61.6202 245.029 62.2238C245.572 62.8274 246.377 63.2897 247.443 63.6051C247.731 63.6921 248.003 63.7519 248.264 63.7791C248.525 63.8063 248.765 63.8226 248.998 63.8226C249.689 63.8226 250.282 63.6921 250.788 63.4365C251.288 63.1755 251.614 62.8057 251.756 62.3162C251.81 62.115 251.843 61.9301 251.843 61.7561C251.843 61.5821 251.799 61.4026 251.712 61.2177C251.625 61.0328 251.495 60.8316 251.326 60.6141C251.152 60.3966 250.994 60.1845 250.853 59.9669C250.706 59.7494 250.635 59.5156 250.635 59.2545V58.9119C250.635 58.3681 250.363 58.0092 249.814 57.8352C249.727 57.808 249.629 57.7917 249.51 57.7917C249.423 57.7917 249.281 57.8134 249.08 57.8569C248.879 57.9004 248.661 57.9929 248.433 58.1397C248.058 58.4007 247.688 58.5258 247.313 58.5258C246.91 58.5258 246.611 58.5095 246.41 58.4823C246.209 58.4551 246.094 58.4388 246.067 58.4388C245.752 58.4388 245.404 58.6563 245.034 59.086C244.887 59.26 244.746 59.4068 244.604 59.5373C244.458 59.6678 244.36 59.831 244.305 60.0322L244.294 60.0268ZM250.244 55.4587C250.358 55.0291 250.418 54.6701 250.418 54.3819C250.418 54.2677 250.402 54.0991 250.374 53.887C250.347 53.6695 250.173 53.5064 249.858 53.3922C249.744 53.365 249.629 53.3487 249.515 53.3487C249.227 53.3487 248.911 53.4955 248.569 53.7783C248.226 54.0665 247.965 54.4689 247.791 54.9856C247.704 55.2738 247.661 55.5457 247.661 55.8067C247.661 55.9807 247.699 56.2091 247.769 56.4974C247.84 56.7856 248.063 57.0031 248.438 57.1445C248.525 57.1717 248.612 57.188 248.699 57.188C248.96 57.188 249.238 57.0466 249.542 56.7584C249.841 56.4702 250.081 56.0406 250.255 55.4641L250.244 55.4587ZM253.474 57.1826C253.561 56.8672 253.605 56.5789 253.605 56.3234C253.605 56.182 253.577 55.9699 253.518 55.698C253.458 55.426 253.273 55.2466 252.957 55.1596C252.843 55.1052 252.729 55.0726 252.615 55.0726C252.354 55.0726 252.082 55.2031 251.794 55.4587C251.505 55.7197 251.277 56.1221 251.103 56.666C251.016 56.927 250.973 57.1554 250.973 57.3566C250.973 57.8732 251.217 58.2158 251.707 58.3899C251.848 58.4497 251.995 58.4769 252.136 58.4769C252.338 58.4769 252.566 58.3844 252.827 58.1941C253.088 58.0092 253.3 57.672 253.474 57.1826ZM254.551 58.689C254.437 58.6346 254.306 58.602 254.165 58.602C253.877 58.602 253.523 58.7434 253.11 59.0316C252.691 59.3198 252.414 59.7059 252.267 60.1953C252.24 60.3095 252.223 60.4129 252.223 60.4944C252.223 60.6358 252.272 60.8099 252.376 61.0111C252.473 61.2123 252.626 61.3428 252.827 61.3972C252.968 61.457 253.115 61.4842 253.257 61.4842C253.572 61.4842 253.931 61.3482 254.333 61.0763C254.736 60.8044 255.008 60.4237 255.155 59.9343C255.182 59.8201 255.198 59.7059 255.198 59.5917C255.198 59.4503 255.149 59.2763 255.046 59.0751C254.942 58.8739 254.779 58.7433 254.551 58.689Z" fill="black"/>
<path d="M270.675 66.4928C270.817 66.4058 270.914 66.3079 270.958 66.1937C271.001 66.0795 271.05 65.9653 271.11 65.8511C271.485 65.0462 271.969 64.274 272.573 63.5235C273.177 62.7785 273.857 62.1205 274.618 61.5603C275.379 61.0002 276.195 60.5488 277.076 60.2008C277.951 59.8582 278.849 59.6842 279.768 59.6842C280.627 59.6842 281.454 59.8364 282.248 60.1355C283.036 60.4346 283.743 60.8697 284.358 61.4298C284.978 61.9899 285.478 62.6588 285.864 63.4365C286.25 64.2142 286.489 65.0734 286.576 66.0197C286.75 68.0862 286.533 70.033 285.929 71.8603C285.326 73.6875 284.379 75.4005 283.085 77.0102C282.596 77.6139 281.992 78.1142 281.274 78.5166C280.556 78.919 279.811 79.1203 279.034 79.1203C278.055 79.1203 277.283 78.7885 276.706 78.1305C276.13 77.4725 275.885 76.5915 275.972 75.5039C275.999 75.0742 276.07 74.6501 276.189 74.2313C276.304 73.8126 276.434 73.4047 276.576 73.0023C276.635 72.8011 276.706 72.6162 276.793 72.4422C276.88 72.2681 276.951 72.0832 277.011 71.882L277.87 69.685C277.93 69.511 278 69.3315 278.087 69.1466C278.174 68.9617 278.245 68.7823 278.305 68.6082C278.446 68.2656 278.566 67.9176 278.648 67.575C278.735 67.2324 278.745 66.8734 278.691 66.4982C278.631 65.9218 278.441 65.4758 278.109 65.1604C277.777 64.845 277.37 64.6873 276.88 64.6873C276.102 64.6873 275.444 64.9483 274.895 65.465C274.351 65.9816 273.889 66.6124 273.514 67.3629C273.139 68.1079 272.84 68.891 272.611 69.7122C272.383 70.5334 272.225 71.2294 272.138 71.8004C272.024 72.4911 271.942 73.1709 271.899 73.8452C271.855 74.5195 271.877 75.2048 271.964 75.89C272.018 76.1184 272.018 76.3631 271.964 76.6241C271.904 77.0537 271.741 77.3909 271.469 77.6356C271.197 77.8803 270.86 78 270.458 78C269.995 78 269.615 77.864 269.316 77.5921C269.017 77.3202 268.75 76.9939 268.516 76.6241C267.885 75.6181 267.293 74.6066 266.749 73.5842C266.205 72.5672 265.726 71.5068 265.329 70.4192C264.584 68.3526 264.117 66.2535 263.926 64.1272C263.741 62.0008 263.888 59.8582 264.378 57.7047C264.519 57.101 264.742 56.4484 265.047 55.7415C265.346 55.0399 265.721 54.3819 266.167 53.7783C266.613 53.1746 267.135 52.6798 267.739 52.2937C268.342 51.9075 269 51.7118 269.723 51.7118C270.24 51.7118 270.708 51.8151 271.127 52.0109C271.545 52.2121 271.904 52.484 272.203 52.832C272.502 53.1746 272.747 53.5716 272.937 54.0176C273.122 54.4635 273.215 54.9312 273.215 55.4206C273.242 55.9101 273.198 56.3832 273.084 56.8454C272.97 57.3077 272.84 57.7808 272.698 58.2648C272.383 59.2709 272.067 60.2715 271.752 61.2612C271.437 62.251 271.175 63.2516 270.974 64.2577C270.914 64.6329 270.849 64.9973 270.778 65.3562C270.708 65.7151 270.67 66.0958 270.67 66.4982L270.675 66.4928Z" fill="black"/>
<path d="M299.764 60.886C299.764 64.5622 299.367 68.059 298.579 71.3817C297.79 74.699 296.708 77.7825 295.348 80.6266C293.983 83.4708 292.379 86.0431 290.541 88.3434C288.703 90.6438 286.74 92.6015 284.657 94.2276C282.574 95.8481 280.42 97.0989 278.191 97.9745C275.967 98.85 273.786 99.2905 271.659 99.2905C270.827 99.2905 269.984 99.1654 269.136 98.9262C268.288 98.6814 267.521 98.3225 266.83 97.8494C266.14 97.3763 265.58 96.7835 265.15 96.082C264.72 95.375 264.503 94.5538 264.503 93.6022C264.503 92.7103 264.704 91.9218 265.106 91.2311C265.509 90.5405 266.031 89.964 266.678 89.5072C267.325 89.045 268.043 88.7024 268.832 88.474C269.62 88.2455 270.42 88.1313 271.224 88.1313C272.432 88.1313 273.623 88.2836 274.803 88.5827C275.983 88.8873 277.174 89.0341 278.381 89.0341C280.448 89.0341 282.46 88.5664 284.412 87.631C286.364 86.6957 288.105 85.2763 289.627 83.362C291.15 81.4532 292.368 79.0604 293.293 76.1891C294.212 73.3177 294.674 69.9406 294.674 66.0632C294.674 64.9701 294.489 64.0728 294.114 63.3713C293.739 62.6697 293.276 62.0878 292.711 61.6256C292.151 61.1688 291.542 60.7664 290.878 60.4183C290.215 60.0757 289.606 59.7059 289.045 59.3198C288.485 58.9337 288.018 58.4714 287.642 57.9385C287.267 57.4056 287.082 56.7095 287.082 55.8502C287.082 55.1596 287.245 54.5342 287.577 53.9741C287.909 53.4139 288.333 52.9354 288.85 52.5329C289.366 52.1305 289.948 51.8205 290.595 51.6084C291.242 51.3909 291.868 51.2876 292.471 51.2876C293.853 51.2876 295 51.5704 295.919 52.1251C296.838 52.6852 297.583 53.4248 298.16 54.3439C298.736 55.2629 299.144 56.2907 299.389 57.4273C299.634 58.5639 299.753 59.7168 299.753 60.8969L299.764 60.886ZM292.569 42.1841C293.287 42.1841 293.891 42.3689 294.38 42.7442C294.87 43.1194 295.283 43.5871 295.631 44.1472C295.974 44.7074 296.278 45.3056 296.534 45.9364C296.795 46.5672 297.05 47.1437 297.311 47.6603C297.627 48.3238 298.046 48.8458 298.562 49.2319C299.079 49.6181 299.568 50.1129 300.025 50.7166C300.025 50.9776 299.916 51.1788 299.704 51.3202C299.487 51.467 299.264 51.5377 299.035 51.5377C298.258 51.5377 297.339 51.4018 296.278 51.1299C295.212 50.858 294.201 50.461 293.238 49.9444C292.276 49.4277 291.454 48.7969 290.78 48.0464C290.106 47.3014 289.769 46.453 289.769 45.5013C289.769 44.6421 289.997 43.8699 290.459 43.1956C290.916 42.5212 291.623 42.1841 292.569 42.1841Z" fill="black"/>
<path d="M303.641 67.5695C303.641 65.8728 303.913 64.2033 304.463 62.5501C305.006 60.8969 305.768 59.3524 306.747 57.9167C307.726 56.4811 308.873 55.1977 310.195 54.0611C311.516 52.9245 312.952 52.0435 314.502 51.4127C315.883 50.8689 317.232 50.5915 318.553 50.5915H318.771C322.36 50.6785 324.916 52.3426 326.444 55.5892C327.102 56.9705 327.472 58.1016 327.542 58.9935C327.613 59.8854 327.651 60.5162 327.651 60.8914C327.651 61.9573 327.537 63.0341 327.309 64.1217C326.792 66.5907 325.916 68.8203 324.682 70.7998C323.447 72.7848 321.794 74.5032 319.728 75.9715C317.944 77.2658 316.008 78.0381 313.909 78.2991C313.506 78.3589 313.104 78.3861 312.702 78.3861C311.353 78.3861 309.972 78.0272 308.563 77.3093C307.155 76.5915 306.007 75.4114 305.115 73.7745C304.136 71.9962 303.652 69.9243 303.652 67.5695H303.641ZM307.263 77.3528C307.291 76.2598 307.405 75.183 307.606 74.1226C307.807 73.0621 308.052 71.9962 308.34 70.9358C308.797 69.1249 309.33 67.3248 309.933 65.5248C310.537 63.7302 311.25 61.9845 312.065 60.2878C312.886 58.5911 313.816 56.9651 314.866 55.3989C315.915 53.8327 317.128 52.3915 318.51 51.0701C318.999 50.5806 319.505 50.1293 320.038 49.7105C320.571 49.2918 321.136 48.9274 321.74 48.612C322.316 48.351 322.882 48.1606 323.442 48.0301C324.002 47.8996 324.584 47.8942 325.188 48.0084C326.221 48.2096 326.939 48.6936 327.341 49.4495C327.744 50.2108 327.744 51.0809 327.341 52.0544C327.2 52.4568 326.999 52.8103 326.738 53.1094C326.476 53.4085 326.194 53.7185 325.878 54.0339C325.476 54.4091 325.068 54.7572 324.649 55.0889C324.23 55.4206 323.806 55.7415 323.377 56.0569C321.827 57.2043 320.348 58.4769 318.939 59.8691C317.531 61.2612 316.258 62.7513 315.127 64.3284C313.99 65.9109 313.039 67.5967 312.261 69.3913C311.483 71.1859 310.967 73.0784 310.711 75.0579C310.624 75.7214 310.483 76.4827 310.282 77.342C310.08 78.2012 309.738 78.881 309.248 79.365C308.846 79.7674 308.389 79.8816 307.867 79.7076C307.465 79.5336 307.263 79.1746 307.263 78.6308C307.236 78.4024 307.225 78.1849 307.242 77.9837C307.258 77.7825 307.263 77.5649 307.263 77.3365V77.3528ZM312.653 61.8812C312.712 61.6202 312.74 61.3809 312.74 61.147C312.74 60.7174 312.631 60.2878 312.419 59.8527C312.201 59.4231 311.81 59.1512 311.233 59.0316H311.016C310.7 59.0316 310.417 59.1349 310.173 59.3307C309.928 59.5319 309.776 59.8636 309.721 60.3204C309.694 60.5488 309.678 60.7664 309.678 60.9676C309.678 61.457 309.792 61.9682 310.021 62.4957C310.249 63.0286 310.624 63.3386 311.141 63.4202H311.315C311.603 63.4202 311.869 63.3006 312.114 63.0558C312.359 62.8111 312.538 62.4196 312.653 61.8703V61.8812ZM310.456 66.3188V66.6233C310.456 67.3683 310.853 68.0753 311.641 68.7333C312.43 69.3968 313.485 69.8373 314.806 70.0711C315.209 70.1309 315.595 70.1581 315.97 70.1581C316.775 70.1581 317.569 69.9787 318.363 69.6197C319.151 69.2608 319.619 68.6626 319.766 67.8306C319.793 67.6566 319.809 67.4988 319.809 67.3575C319.809 67.0964 319.739 66.8463 319.592 66.6015C319.45 66.3568 319.255 66.1121 319.01 65.8674C318.765 65.6227 318.526 65.3779 318.297 65.1332C318.069 64.8885 317.939 64.5677 317.911 64.1652C317.852 63.4202 317.449 62.958 316.704 62.7839C316.617 62.7567 316.53 62.7404 316.443 62.7404C316.296 62.7404 316.1 62.7894 315.839 62.8927C315.578 62.996 315.334 63.1592 315.105 63.3876C314.73 63.7302 314.382 63.926 314.05 63.9695C313.718 64.013 313.387 64.0347 313.06 64.0347C312.734 64.0347 312.413 64.0837 312.114 64.187C311.815 64.2903 311.505 64.584 311.19 65.068C311.043 65.2964 310.901 65.5085 310.76 65.6934C310.613 65.8783 310.515 66.0903 310.461 66.3188H310.456ZM316.835 59.8963C316.889 59.5808 316.922 59.2926 316.922 59.037C316.922 58.7488 316.873 58.4334 316.769 58.0908C316.666 57.7482 316.432 57.547 316.057 57.4871H315.796C315.393 57.4871 314.991 57.6938 314.589 58.1125C314.186 58.5313 313.925 59.0696 313.811 59.7277C313.784 59.9289 313.767 60.1301 313.767 60.3313C313.767 60.6739 313.844 61.0491 314.007 61.4516C314.164 61.854 314.474 62.0987 314.931 62.1857H315.149C315.491 62.1857 315.828 61.9845 316.16 61.5821C316.492 61.1797 316.715 60.6195 316.829 59.9017L316.835 59.8963ZM320.973 61.4026C321.027 61.1742 321.06 60.9567 321.06 60.7555C321.06 60.4401 320.989 60.0975 320.842 59.7222C320.696 59.347 320.44 59.1349 320.065 59.0751C319.978 59.0479 319.891 59.0316 319.804 59.0316C319.429 59.0316 319.081 59.2274 318.749 59.6135C318.417 59.9996 318.194 60.5271 318.08 61.1851C318.053 61.3863 318.036 61.5712 318.036 61.7452C318.036 62.5501 318.379 63.0232 319.07 63.17C319.157 63.1972 319.255 63.2135 319.369 63.2135C319.711 63.2135 320.038 63.0722 320.337 62.7839C320.636 62.4957 320.848 62.0389 320.962 61.4026H320.973ZM322.523 63.0395H322.262C321.832 63.0395 321.381 63.2462 320.902 63.6649C320.429 64.0837 320.136 64.6057 320.021 65.2366V65.4541C320.021 65.6825 320.108 65.9218 320.282 66.1665C320.456 66.4112 320.658 66.5472 320.886 66.5743H321.147C321.636 66.5743 322.115 66.3731 322.588 65.9707C323.061 65.5683 323.344 65.068 323.431 64.4643V64.2468C323.431 63.9858 323.344 63.7356 323.17 63.4909C322.996 63.2462 322.784 63.0939 322.523 63.0395Z" fill="black"/>
<path d="M341.219 57.3131C341.649 56.7693 342.133 56.2418 342.661 55.7415C343.193 55.2412 343.759 54.7952 344.363 54.4037C344.966 54.0121 345.603 53.7076 346.282 53.4792C346.957 53.2508 347.653 53.1366 348.371 53.1366C349.752 53.1366 350.954 53.5553 351.992 54.3874C353.026 55.2194 353.744 56.3723 354.146 57.8352C354.548 59.2981 354.581 60.6739 354.255 61.9519C353.923 63.2299 353.298 64.4426 352.379 65.5955C351.976 66.0849 351.503 66.4982 350.954 66.8463C350.41 67.1889 349.806 67.3629 349.143 67.3629C348.539 67.3629 348.044 67.2433 347.658 66.9985C347.272 66.7538 346.968 66.433 346.756 66.0306C346.538 65.6281 346.391 65.1822 346.304 64.6928C346.217 64.2033 346.174 63.7139 346.174 63.2299C346.174 62.8873 346.19 62.5338 346.217 62.1749C346.244 61.816 346.233 61.4516 346.174 61.0764C346.027 59.9833 345.526 59.4395 344.667 59.4395C344.292 59.4395 343.933 59.5265 343.59 59.7005C343.248 59.8745 342.916 60.0866 342.601 60.3476C342.285 60.6087 341.997 60.8915 341.741 61.2069C341.48 61.5223 341.268 61.8268 341.094 62.1096C339.86 64.0075 339.169 65.9381 339.028 67.9067C338.881 69.8754 339.202 71.8929 339.974 73.9594C340.115 74.3347 340.268 74.6936 340.425 75.0362C340.583 75.3788 340.735 75.7377 340.877 76.113C341.105 76.6296 341.198 77.032 341.16 77.3202C341.116 77.6085 340.953 77.8532 340.665 78.0544C340.436 78.1958 340.192 78.2719 339.931 78.2719C339.501 78.2719 339.017 78.0653 338.489 77.6465C337.957 77.2278 337.44 76.7329 336.94 76.1619C336.439 75.5855 335.993 75.0036 335.602 74.4162C335.216 73.8289 334.933 73.3612 334.764 73.0132C333.416 70.3702 332.524 67.5424 332.094 64.5242C331.92 63.2897 331.849 62.0661 331.877 60.8588C331.904 59.6516 332.051 58.4443 332.306 57.237C332.448 56.6334 332.671 55.9862 332.975 55.2956C333.28 54.6049 333.644 53.9686 334.074 53.3759C334.503 52.7886 335.014 52.2991 335.602 51.913C336.189 51.5269 336.842 51.3311 337.565 51.3311C338.169 51.3311 338.685 51.4834 339.115 51.7825C339.544 52.0816 339.903 52.4677 340.192 52.9245C340.48 53.3868 340.692 53.8871 340.839 54.4309C340.98 54.9747 341.067 55.5076 341.1 56.0243C341.127 56.2255 341.138 56.4267 341.122 56.6279C341.105 56.8291 341.143 57.0575 341.23 57.3186L341.219 57.3131Z" fill="black"/>
<path d="M367.377 59.2926C367.578 59.0914 367.741 58.9282 367.872 58.7977C368.002 58.6672 368.138 58.5476 368.28 58.4334C369.085 57.6557 369.96 57.0249 370.906 56.5354C371.853 56.046 372.891 55.8013 374.012 55.8013C374.702 55.8013 375.393 55.9046 376.078 56.1004C376.769 56.3016 377.405 56.617 377.998 57.0466C378.585 57.4762 379.096 58.0473 379.526 58.7488C379.956 59.4503 380.26 60.3095 380.429 61.3102C380.717 63.0069 380.717 64.6492 380.429 66.2426C380.141 67.836 379.738 69.4403 379.221 71.05C379.047 71.6264 378.797 72.3008 378.466 73.073C378.134 73.8506 377.731 74.5794 377.258 75.27C376.785 75.9607 376.247 76.548 375.643 77.0374C375.039 77.5269 374.365 77.7716 373.62 77.7716C372.957 77.7716 372.353 77.5432 371.809 77.0809C371.265 76.6241 370.89 75.977 370.689 75.1395C370.542 74.4815 370.493 73.8343 370.537 73.1981C370.58 72.5672 370.673 71.9201 370.819 71.2566C370.961 70.5116 371.157 69.772 371.401 69.0378C371.646 68.3037 371.88 67.5641 372.114 66.8191C372.516 65.639 372.804 64.4643 372.973 63.2842C373.027 62.8546 373.065 62.425 373.082 61.9899C373.098 61.5603 373.033 61.1416 372.886 60.7392C372.543 59.5319 371.749 59.0152 370.515 59.1893C369.596 59.2763 368.731 59.6787 367.932 60.3966C367.127 61.1144 366.54 61.8757 366.164 62.6806C365.675 63.8281 365.283 64.9918 364.979 66.1719C364.68 67.352 364.538 68.5865 364.571 69.8753C364.598 70.7944 364.723 71.6808 364.935 72.5237C365.153 73.3721 365.457 74.2096 365.86 75.047C366.001 75.3625 366.143 75.6561 366.268 75.928C366.398 76.1999 366.518 76.4936 366.632 76.809C366.806 77.3256 366.746 77.7498 366.458 78.0816C366.17 78.4133 365.756 78.5329 365.207 78.4459C364.832 78.3589 364.43 78.174 364 77.8858C363.57 77.5976 363.157 77.2604 362.771 76.8743C362.385 76.4882 362.037 76.0857 361.738 75.667C361.439 75.2483 361.199 74.8839 361.025 74.5685C358.181 69.0813 357.447 63.3495 358.828 57.3729C358.97 56.7693 359.193 56.1113 359.497 55.388C359.796 54.6701 360.177 54.0067 360.639 53.403C361.096 52.7994 361.623 52.2882 362.211 51.8749C362.798 51.4562 363.451 51.2495 364.174 51.2495C364.75 51.2495 365.278 51.4018 365.767 51.7009C366.257 52 366.67 52.4405 367.018 53.0169C367.334 53.5607 367.54 54.1318 367.644 54.7191C367.741 55.3064 367.78 55.9209 367.752 56.5517C367.725 56.9542 367.665 57.3784 367.578 57.8243C367.491 58.2702 367.421 58.7488 367.361 59.2654L367.377 59.2926Z" fill="black"/>
<path d="M399.87 78.8592H399.223C397.124 78.8592 395.101 78.4568 393.149 77.6519C391.196 76.8471 389.342 75.6289 387.591 73.9866C386.699 73.1546 385.976 72.2246 385.416 71.2077C384.855 70.1907 384.491 69.2336 384.317 68.3418C384.143 67.4499 384.056 66.6614 384.056 65.9707C384.056 65.5411 384.1 64.932 384.187 64.138C384.274 63.3495 384.562 62.3924 385.046 61.2721C385.677 59.7766 386.509 58.3409 387.547 56.9651C388.581 55.5838 389.766 54.3656 391.104 53.2997C392.442 52.2393 393.888 51.38 395.454 50.7329C397.021 50.0857 398.652 49.7649 400.343 49.7649C400.686 49.7649 401.034 49.7812 401.377 49.8084C401.719 49.8356 402.067 49.8791 402.41 49.9389C404.02 50.1999 405.347 50.7438 406.396 51.5758C407.446 52.4079 408.207 53.365 408.68 54.4417C409.153 55.5185 409.393 56.6333 409.393 57.7808C409.393 57.895 409.376 58.3137 409.349 59.0316C409.322 59.7494 409.006 60.6957 408.403 61.8757C407.484 63.7139 406.255 65.1278 404.716 66.123C403.177 67.1127 401.377 67.6946 399.305 67.8686C398.842 67.8958 398.402 67.9121 397.967 67.9121C397.222 67.9121 396.363 67.8578 395.406 67.7381C394.443 67.6239 393.372 67.4064 392.197 67.091C391.969 67.0312 391.724 67.004 391.463 67.004C391.06 67.004 390.609 67.1345 390.103 67.3901C389.598 67.6511 389.206 68.01 388.918 68.4668C388.602 68.9835 388.445 69.4729 388.445 69.9297C388.445 70.5062 388.673 71.0663 389.135 71.6101C390.228 72.8772 391.648 73.5515 393.404 73.6331C393.578 73.6603 393.763 73.6766 393.964 73.6766C394.367 73.6766 394.824 73.6168 395.346 73.5026C395.862 73.3884 396.406 73.2579 396.983 73.1165C398.076 72.8283 399.125 72.4639 400.126 72.018C401.132 71.572 402.165 71.1805 403.231 70.8325C403.976 70.5714 404.64 70.3865 405.216 70.2723C405.793 70.1581 406.277 70.0983 406.679 70.0983C407.022 70.0983 407.38 70.1255 407.756 70.1853C407.816 70.1853 407.854 70.2016 407.886 70.2288H408.185C408.213 70.256 408.256 70.2723 408.316 70.2723C409.262 70.5334 409.866 70.914 410.127 71.4143C410.388 71.9201 410.513 72.3551 410.513 72.7304C410.513 73.16 410.399 73.6222 410.17 74.1117C409.708 75.1177 409.099 75.928 408.338 76.548C407.576 77.1679 406.733 77.6465 405.814 77.9891C404.895 78.3317 403.927 78.5656 402.905 78.6798C401.882 78.794 400.871 78.8538 399.865 78.8538L399.87 78.8592ZM396.809 56.6225C396.923 56.307 396.983 56.0025 396.983 55.7197C396.983 55.4913 396.923 55.2031 396.809 54.8605C396.694 54.5179 396.406 54.2732 395.949 54.1263C395.835 54.0991 395.732 54.0828 395.645 54.0828C395.444 54.0828 395.242 54.1481 395.041 54.2786C394.84 54.4091 394.682 54.6593 394.568 55.0345C394.481 55.3499 394.438 55.6545 394.438 55.9372C394.438 56.22 394.497 56.5626 394.612 56.9487C394.726 57.3349 394.987 57.6013 395.389 57.7482C395.476 57.7754 395.563 57.7917 395.65 57.7917C395.851 57.7917 396.058 57.7047 396.276 57.5306C396.493 57.3566 396.673 57.0575 396.814 56.6279L396.809 56.6225ZM394.525 60.0268C394.465 60.2008 394.438 60.3694 394.438 60.5434C394.438 61.06 394.709 61.6202 395.259 62.2238C395.803 62.8274 396.607 63.2897 397.673 63.6051C397.962 63.6921 398.233 63.7519 398.494 63.7791C398.755 63.8063 398.995 63.8226 399.229 63.8226C399.919 63.8226 400.512 63.6921 401.018 63.4365C401.518 63.1755 401.844 62.8057 401.986 62.3162C402.04 62.115 402.073 61.9301 402.073 61.7561C402.073 61.5821 402.029 61.4026 401.942 61.2177C401.855 61.0328 401.725 60.8316 401.556 60.6141C401.382 60.3966 401.224 60.1845 401.083 59.9669C400.936 59.7494 400.866 59.5156 400.866 59.2545V58.9119C400.866 58.3681 400.594 58.0092 400.044 57.8352C399.957 57.808 399.859 57.7917 399.74 57.7917C399.653 57.7917 399.511 57.8134 399.31 57.8569C399.109 57.9004 398.891 57.9929 398.663 58.1397C398.288 58.4007 397.918 58.5258 397.543 58.5258C397.14 58.5258 396.841 58.5095 396.64 58.4823C396.439 58.4551 396.325 58.4388 396.297 58.4388C395.982 58.4388 395.634 58.6563 395.264 59.086C395.117 59.26 394.976 59.4068 394.835 59.5373C394.688 59.6678 394.59 59.831 394.535 60.0322L394.525 60.0268ZM400.474 55.4587C400.588 55.0291 400.648 54.6701 400.648 54.3819C400.648 54.2677 400.632 54.0991 400.604 53.887C400.577 53.6695 400.403 53.5064 400.088 53.3922C399.974 53.365 399.859 53.3487 399.745 53.3487C399.457 53.3487 399.142 53.4955 398.799 53.7783C398.456 54.0665 398.195 54.4689 398.021 54.9856C397.934 55.2738 397.891 55.5457 397.891 55.8067C397.891 55.9807 397.929 56.2091 398 56.4974C398.07 56.7856 398.293 57.0031 398.668 57.1445C398.755 57.1717 398.842 57.188 398.93 57.188C399.191 57.188 399.468 57.0466 399.772 56.7584C400.072 56.4702 400.311 56.0406 400.485 55.4641L400.474 55.4587ZM403.704 57.1826C403.791 56.8672 403.835 56.5789 403.835 56.3234C403.835 56.182 403.808 55.9699 403.748 55.698C403.688 55.426 403.503 55.2466 403.188 55.1596C403.073 55.1052 402.959 55.0726 402.845 55.0726C402.584 55.0726 402.312 55.2031 402.024 55.4587C401.736 55.7197 401.507 56.1221 401.333 56.666C401.246 56.927 401.203 57.1554 401.203 57.3566C401.203 57.8732 401.447 58.2158 401.937 58.3899C402.078 58.4497 402.225 58.4769 402.366 58.4769C402.568 58.4769 402.796 58.3844 403.057 58.1941C403.318 58.0092 403.53 57.672 403.704 57.1826ZM404.781 58.689C404.667 58.6346 404.536 58.602 404.395 58.602C404.107 58.602 403.753 58.7434 403.34 59.0316C402.921 59.3198 402.644 59.7059 402.497 60.1953C402.47 60.3095 402.453 60.4129 402.453 60.4944C402.453 60.6358 402.502 60.8099 402.606 61.0111C402.704 61.2123 402.856 61.3428 403.057 61.3972C403.198 61.457 403.345 61.4842 403.487 61.4842C403.802 61.4842 404.161 61.3482 404.563 61.0763C404.966 60.8044 405.238 60.4237 405.385 59.9343C405.412 59.8201 405.428 59.7059 405.428 59.5917C405.428 59.4503 405.379 59.2763 405.276 59.0751C405.173 58.8739 405.009 58.7433 404.781 58.689Z" fill="black"/>
<path d="M414.956 63.132C414.64 63.1918 414.336 63.2407 414.053 63.2843C413.765 63.3278 413.466 63.3658 413.15 63.393C412.634 63.48 412.188 63.4202 411.813 63.219C411.41 62.9906 411.187 62.7187 411.144 62.3978C411.1 62.0824 411.236 61.767 411.552 61.4516C411.894 61.109 412.253 60.8751 412.628 60.7609C412.944 60.6195 413.275 60.4781 413.618 60.3531C413.961 60.2226 414.309 60.1138 414.651 60.0322C414.967 59.9452 415.206 59.8147 415.364 59.6461C415.521 59.4721 415.63 59.2165 415.685 58.8684C415.826 58.2104 416.005 57.5198 416.223 56.8019C416.44 56.0841 416.718 55.3934 417.066 54.7354C417.408 54.0774 417.822 53.4629 418.295 52.9027C418.768 52.3426 419.306 51.8912 419.91 51.5432C420.313 51.3148 420.72 51.1353 421.139 51.0048C421.558 50.8743 422.009 50.8689 422.499 50.9831C423.216 51.1843 423.815 51.5813 424.288 52.1686C424.761 52.7559 425.055 53.4683 425.169 54.3004C425.229 54.8768 425.229 55.4369 425.169 55.9808C425.109 56.5246 425.011 57.0738 424.87 57.6177C424.756 58.0201 424.717 58.2594 424.761 58.3301C424.804 58.4008 425.027 58.4932 425.43 58.6128C425.919 58.7542 426.354 58.9555 426.746 59.2165C427.137 59.4775 427.485 59.8038 427.801 60.2062C428.345 60.9241 428.492 61.6147 428.231 62.2728C427.969 62.9362 427.398 63.3495 426.507 63.5235C426.017 63.6377 425.549 63.6595 425.104 63.5888C424.658 63.5181 424.206 63.4256 423.744 63.306C423.255 63.1918 422.961 63.1646 422.863 63.219C422.76 63.2788 422.624 63.5344 422.455 63.9967C421.792 65.862 421.411 67.7381 421.313 69.6197C421.21 71.5014 421.465 73.3884 422.069 75.2863C422.156 75.5746 422.227 75.8519 422.287 76.1238C422.341 76.3957 422.374 76.6785 422.374 76.9667C422.374 77.5704 422.2 78.0816 421.857 78.4949C421.514 78.9136 421.025 79.1203 420.394 79.1203C419.905 79.1203 419.415 78.8756 418.931 78.3861C418.703 78.1577 418.502 77.9184 418.328 77.6737C418.154 77.429 417.985 77.1788 417.811 76.9178C416.691 75.0525 415.886 73.1274 415.396 71.1424C414.907 69.1575 414.766 67.0801 414.967 64.894C414.994 64.6057 415.016 64.3175 415.032 64.0347C415.048 63.7465 415.027 63.4474 414.967 63.132H414.956Z" fill="black"/>
<path d="M438.356 73.731C438.269 74.7099 438.025 75.6127 437.622 76.4447C437.22 77.2767 436.633 78.0109 435.855 78.6417C435.311 79.0985 434.735 79.3324 434.131 79.3324C433.729 79.3324 433.37 79.229 433.054 79.0333C432.565 78.8049 432.211 78.4731 431.999 78.0435C431.782 77.6139 431.689 77.1408 431.716 76.6187C431.776 75.6725 431.977 74.7806 432.32 73.9486C432.663 73.1165 433.239 72.3824 434.044 71.7515C434.272 71.5231 434.588 71.3273 434.99 71.1696C435.393 71.0119 435.752 70.9304 436.067 70.9304C436.497 70.9304 436.85 71.0174 437.122 71.1914C437.394 71.3654 437.617 71.5775 437.791 71.8385C437.965 72.0996 438.095 72.3932 438.177 72.7195C438.264 73.0513 438.318 73.3884 438.351 73.731H438.356Z" fill="black"/>
<path d="M459.342 65.1115C459.37 64.5949 459.342 64.1489 459.255 63.7737C459.168 63.3985 459.098 63.0287 459.038 62.6534C459.011 62.4522 458.978 62.2564 458.951 62.0715C458.924 61.8867 458.88 61.7072 458.82 61.5332L458.391 59.2491C458.331 59.0479 458.298 58.863 458.282 58.689C458.266 58.515 458.233 58.3301 458.173 58.1289C458.059 57.4382 458.01 56.7584 458.021 56.0841C458.037 55.4098 458.113 54.7246 458.26 54.0393C458.374 53.5227 458.559 53.0333 458.82 52.5765C459.081 52.1197 459.397 51.7009 459.767 51.3257C460.142 50.9504 460.566 50.6568 461.039 50.4447C461.512 50.2272 462.023 50.1238 462.567 50.1238C463.66 50.1238 464.579 50.4882 465.324 51.2224C466.069 51.9565 466.646 52.7831 467.048 53.7022C467.478 54.6484 467.766 55.6273 467.908 56.6334C468.049 57.6394 468.109 58.6564 468.082 59.6951C468.022 61.7616 467.739 63.752 467.222 65.6662C466.706 67.575 465.999 69.4512 465.112 71.2893C464.22 73.1002 463.068 74.6011 461.643 75.7921C460.223 76.9831 458.592 77.9239 456.754 78.6145C455.862 78.9571 454.965 79.2345 454.062 79.4357C453.159 79.6369 452.229 79.7348 451.283 79.7348C449.902 79.762 448.618 79.5118 447.427 78.9789C446.236 78.4459 445.219 77.7118 444.387 76.7819C443.555 75.8465 442.93 74.7643 442.511 73.5298C442.092 72.2954 441.973 70.9847 442.147 69.6089C442.288 68.3472 442.598 67.1617 443.071 66.0523C443.544 64.9484 444.164 63.9695 444.926 63.1211C445.687 62.2728 446.59 61.5767 447.639 61.0329C448.689 60.489 449.874 60.141 451.196 59.9996C451.8 59.9452 452.387 59.9778 452.963 60.1084C453.54 60.2389 454.1 60.4292 454.644 60.6902C456.308 61.4353 457.629 62.5555 458.608 64.0511C458.722 64.1979 458.831 64.3447 458.929 64.5024C459.027 64.6601 459.168 64.8668 459.337 65.1278L459.342 65.1115ZM448.912 68.7333C448.972 68.1569 448.885 67.662 448.651 67.2487C448.422 66.83 448.074 66.5961 447.618 66.5363C447.302 66.4765 447.052 66.5581 446.862 66.7756C446.677 66.9931 446.552 67.2868 446.497 67.6566C446.438 68.2602 446.541 68.7986 446.796 69.2717C447.058 69.7448 447.384 70.0113 447.786 70.0711C448.074 70.131 448.319 70.0276 448.52 69.772C448.722 69.511 448.852 69.1684 448.906 68.7388L448.912 68.7333ZM447.406 72.3552C447.346 73.0458 447.677 73.6495 448.395 74.1661C449.113 74.6827 449.989 74.9981 451.022 75.1123C452.055 75.2265 452.925 75.0851 453.627 74.6827C454.328 74.2803 454.725 73.7473 454.812 73.0893C454.867 72.6869 454.818 72.3769 454.66 72.1648C454.502 71.9473 454.323 71.757 454.122 71.583C453.921 71.4089 453.725 71.2295 453.54 71.0446C453.355 70.8597 453.23 70.6041 453.175 70.2887C453.088 69.7122 452.746 69.3859 452.142 69.2989C451.968 69.2717 451.767 69.2989 451.539 69.3859C451.31 69.4729 451.109 69.6034 450.935 69.772C450.647 70.0874 450.369 70.2723 450.097 70.3322C449.826 70.392 449.559 70.4246 449.298 70.4409C449.037 70.4572 448.798 70.5062 448.564 70.5932C448.335 70.6802 448.118 70.9249 447.917 71.3274C447.803 71.5286 447.694 71.708 447.596 71.8657C447.493 72.0234 447.433 72.1866 447.4 72.3606L447.406 72.3552ZM452.148 66.9659C452.202 66.4221 452.169 65.9816 452.039 65.6499C451.908 65.3182 451.685 65.1278 451.37 65.068C450.968 65.0082 450.609 65.1931 450.293 65.6064C449.978 66.0251 449.793 66.4765 449.733 66.9659C449.673 67.4554 449.739 67.885 449.929 68.2602C450.114 68.6354 450.38 68.8475 450.728 68.9074C451.104 68.9672 451.419 68.7986 451.675 68.4125C451.936 68.0264 452.093 67.5424 452.148 66.9714V66.9659ZM455.508 67.9557C455.568 67.4662 455.508 67.0584 455.334 66.7266C455.16 66.3949 454.916 66.2046 454.6 66.1448C454.258 66.0904 453.937 66.2372 453.654 66.5961C453.366 66.955 453.192 67.3955 453.137 67.9122C453.05 68.8584 453.366 69.375 454.084 69.4621C454.426 69.5219 454.736 69.4022 455.008 69.1194C455.28 68.8312 455.443 68.4451 455.503 67.9557H455.508ZM456.803 69.2065C456.602 69.1793 456.395 69.2119 456.177 69.3152C455.96 69.4185 455.77 69.5545 455.595 69.7231C455.421 69.8917 455.28 70.0874 455.166 70.305C455.052 70.5225 454.981 70.7563 454.948 71.0174C454.921 71.2784 454.986 71.5068 455.144 71.708C455.302 71.9092 455.481 72.0234 455.682 72.0506C456.112 72.1105 456.52 71.9419 456.912 71.5558C457.298 71.1696 457.521 70.7292 457.58 70.2397C457.608 69.9515 457.542 69.7176 457.385 69.5273C457.227 69.3424 457.031 69.2337 456.803 69.2065Z" fill="black"/>
<path d="M481.791 66.4928C482.449 66.3786 483.075 66.297 483.667 66.2535C484.255 66.21 484.837 66.2481 485.413 66.3623C486.191 66.5037 486.979 66.7647 487.784 67.1399C488.589 67.5152 489.334 67.9992 490.025 68.6028C490.715 69.2064 491.308 69.9297 491.814 70.7781C492.314 71.6264 492.651 72.5836 492.825 73.644C492.967 74.4761 492.885 75.232 492.564 75.9063C492.249 76.5806 491.743 77.119 491.058 77.5214C490.514 77.864 489.921 78.0381 489.291 78.0381C488.774 78.0381 488.29 77.9293 487.849 77.7172C487.403 77.4997 486.996 77.2278 486.62 76.896C486.245 76.5643 485.908 76.1945 485.609 75.7758C485.31 75.357 485.027 74.9492 484.766 74.5467C484.679 74.4054 484.603 74.2748 484.527 74.1606C484.456 74.0464 484.374 73.9322 484.287 73.818L483.341 72.2681C482.825 71.4361 482.264 70.7509 481.661 70.2234C481.057 69.6904 480.241 69.3424 479.203 69.1684C479.116 69.7448 479.121 70.305 479.224 70.8488C479.322 71.3926 479.475 71.9419 479.676 72.4857C479.817 72.8881 479.986 73.2851 480.171 73.6712C480.356 74.0573 480.535 74.4543 480.709 74.8567C480.937 75.319 481.095 75.7921 481.182 76.2761C481.324 76.8199 481.182 77.2658 480.753 77.6139C480.606 77.7281 480.437 77.7879 480.236 77.7879C480.062 77.7879 479.85 77.7172 479.589 77.5704C479.328 77.4236 479.067 77.2604 478.789 77.0755C478.517 76.8906 478.267 76.6948 478.033 76.4936C477.805 76.2924 477.631 76.1347 477.517 76.0205C475.216 73.4917 473.623 70.7835 472.731 67.8958C471.839 65.0082 471.682 61.8703 472.258 58.4823C472.399 57.7373 472.622 56.9542 472.927 56.133C473.226 55.3119 473.623 54.5342 474.113 53.7837C474.602 53.0387 475.168 52.3916 475.815 51.8423C476.462 51.2985 477.185 50.9396 477.99 50.7655C478.936 50.5643 479.763 50.6894 480.47 51.1299C481.171 51.5758 481.655 52.2556 481.911 53.1747C482.085 53.7511 482.139 54.3004 482.085 54.8333C482.025 55.3662 481.927 55.9046 481.786 56.4484L480.105 62.2673C480.046 62.5283 479.98 62.7839 479.91 63.045C479.839 63.306 479.801 63.5779 479.801 63.8661C480.029 63.7791 480.182 63.6595 480.252 63.5018C480.323 63.3441 480.405 63.1918 480.492 63.0504C480.981 62.3054 481.53 61.544 482.15 60.7664C482.77 59.9887 483.444 59.2817 484.173 58.6346C484.902 57.9875 485.696 57.4219 486.544 56.9324C487.393 56.443 488.274 56.1113 489.193 55.9427C490.112 55.8013 490.955 55.8611 491.716 56.1385C492.477 56.4104 493.059 56.8781 493.462 57.5415C493.891 58.2866 494.065 59.0914 493.978 59.9561C493.891 60.8153 493.56 61.6202 492.989 62.3706C492.586 62.8601 492.135 63.2462 491.629 63.5344C491.129 63.8226 490.585 64.0674 490.014 64.2686C489.209 64.5296 488.388 64.7199 487.556 64.8505C486.724 64.981 485.892 65.1332 485.054 65.3018C484.679 65.3888 484.309 65.4813 483.934 65.5846C483.559 65.6879 483.189 65.8076 482.814 65.949C482.672 66.0088 482.52 66.0632 482.362 66.123C482.205 66.1828 482.009 66.3079 481.78 66.5091L481.791 66.4928Z" fill="black"/>
</svg>
